<?xml version="1.0" encoding="UTF-8" standalone="no"?>
<?xml-stylesheet href="doxygen.css" type="text/css"?>
<!DOCTYPE svg PUBLIC "-//W3C//DTD SVG 1.1//EN"
 "http://www.w3.org/Graphics/SVG/1.1/DTD/svg11.dtd">
<!-- Generated by graphviz version 2.43.0 (0)
 -->
<!-- Title: G Pages: 1 -->
<svg width="297pt" height="232pt"
 viewBox="0.00 0.00 297.00 232.00" xmlns="http://www.w3.org/2000/svg" xmlns:xlink="http://www.w3.org/1999/xlink">
<g id="graph0" class="graph" transform="scale(1 1) rotate(0) translate(4 228)">
<title>G</title>
<polygon fill="white" stroke="transparent" points="-4,4 -4,-228 293,-228 293,4 -4,4"/>
<!-- node5 -->
<g id="node1" class="node">
<title>node5</title>
<path fill="none" stroke="black" d="M253.5,-224C253.5,-224 35.5,-224 35.5,-224 29.5,-224 23.5,-218 23.5,-212 23.5,-212 23.5,-200 23.5,-200 23.5,-194 29.5,-188 35.5,-188 35.5,-188 253.5,-188 253.5,-188 259.5,-188 265.5,-194 265.5,-200 265.5,-200 265.5,-212 265.5,-212 265.5,-218 259.5,-224 253.5,-224"/>
<polygon fill="white" stroke="transparent" points="31.5,-198 31.5,-213 257.5,-213 257.5,-198 31.5,-198"/>
<text text-anchor="start" x="31.5" y="-201.8" font-family="Times,serif" font-size="14.00"> AsyncInput_process:process( ) </text>
</g>
<!-- node1 -->
<g id="node2" class="node">
<title>node1</title>
<polygon fill="lightcyan" stroke="transparent" points="7.5,-79 7.5,-145 282.5,-145 282.5,-79 7.5,-79"/>
<polygon fill="none" stroke="black" points="7.5,-79 7.5,-145 282.5,-145 282.5,-79 7.5,-79"/>
<text text-anchor="start" x="10.5" y="-130.8" font-family="Times,serif" font-size="14.00"> AsyncInput&lt;= &#39;0&#39;</text>
<text text-anchor="start" x="10.5" y="-115.8" font-family="Times,serif" font-size="14.00"> wait &#160;for &#160;&#160;&#160;ASYNCINPUT_PERIOD/ 2</text>
<text text-anchor="start" x="10.5" y="-100.8" font-family="Times,serif" font-size="14.00">AsyncInput&lt;= &#39;1&#39;</text>
<text text-anchor="start" x="10.5" y="-85.8" font-family="Times,serif" font-size="14.00"> wait &#160;for &#160;&#160;&#160;ASYNCINPUT_PERIOD/ 2 </text>
</g>
<!-- node5&#45;&gt;node1 -->
<g id="edge1" class="edge">
<title>node5&#45;&gt;node1</title>
<path fill="none" stroke="green" d="M144.5,-187.7C144.5,-180.43 144.5,-171.58 144.5,-162.55"/>
<polygon fill="green" stroke="green" points="148,-162.35 144.5,-152.35 141,-162.35 148,-162.35"/>
</g>
<!-- node6 -->
<g id="node3" class="node">
<title>node6</title>
<path fill="none" stroke="black" d="M190.5,-36C190.5,-36 98.5,-36 98.5,-36 92.5,-36 86.5,-30 86.5,-24 86.5,-24 86.5,-12 86.5,-12 86.5,-6 92.5,0 98.5,0 98.5,0 190.5,0 190.5,0 196.5,0 202.5,-6 202.5,-12 202.5,-12 202.5,-24 202.5,-24 202.5,-30 196.5,-36 190.5,-36"/>
<polygon fill="white" stroke="transparent" points="94.5,-10 94.5,-25 194.5,-25 194.5,-10 94.5,-10"/>
<text text-anchor="start" x="94.5" y="-13.8" font-family="Times,serif" font-size="14.00"> end process &#160;</text>
</g>
<!-- node1&#45;&gt;node6 -->
<g id="edge2" class="edge">
<title>node1&#45;&gt;node6</title>
<path fill="none" stroke="green" d="M144.5,-71.98C144.5,-63.27 144.5,-54.21 144.5,-46.1"/>
<polygon fill="green" stroke="green" points="148,-46.09 144.5,-36.09 141,-46.09 148,-46.09"/>
</g>
</g>
</svg>
