<?xml version="1.0" encoding="UTF-8" standalone="no"?>
<?xml-stylesheet href="doxygen.css" type="text/css"?>
<!DOCTYPE svg PUBLIC "-//W3C//DTD SVG 1.1//EN"
 "http://www.w3.org/Graphics/SVG/1.1/DTD/svg11.dtd">
<!-- Generated by graphviz version 2.43.0 (0)
 -->
<!-- Title: G Pages: 1 -->
<svg width="252pt" height="232pt"
 viewBox="0.00 0.00 252.00 232.00" xmlns="http://www.w3.org/2000/svg" xmlns:xlink="http://www.w3.org/1999/xlink">
<g id="graph0" class="graph" transform="scale(1 1) rotate(0) translate(4 228)">
<title>G</title>
<polygon fill="white" stroke="transparent" points="-4,4 -4,-228 248,-228 248,4 -4,4"/>
<!-- node5 -->
<g id="node1" class="node">
<title>node5</title>
<path fill="none" stroke="black" d="M205.5,-224C205.5,-224 38.5,-224 38.5,-224 32.5,-224 26.5,-218 26.5,-212 26.5,-212 26.5,-200 26.5,-200 26.5,-194 32.5,-188 38.5,-188 38.5,-188 205.5,-188 205.5,-188 211.5,-188 217.5,-194 217.5,-200 217.5,-200 217.5,-212 217.5,-212 217.5,-218 211.5,-224 205.5,-224"/>
<polygon fill="white" stroke="transparent" points="35,-198 35,-213 210,-213 210,-198 35,-198"/>
<text text-anchor="start" x="35" y="-201.8" font-family="Times,serif" font-size="14.00"> AsyncInput_process:process( ) </text>
</g>
<!-- node1 -->
<g id="node2" class="node">
<title>node1</title>
<polygon fill="lightcyan" stroke="transparent" points="7,-79 7,-145 237,-145 237,-79 7,-79"/>
<polygon fill="none" stroke="black" points="7,-79 7,-145 237,-145 237,-79 7,-79"/>
<text text-anchor="start" x="10" y="-130.8" font-family="Times,serif" font-size="14.00"> AsyncInput&lt;= &#39;0&#39;</text>
<text text-anchor="start" x="10" y="-115.8" font-family="Times,serif" font-size="14.00"> wait &#160;for &#160;&#160;&#160;ASYNCINPUT_PERIOD/ 2</text>
<text text-anchor="start" x="10" y="-100.8" font-family="Times,serif" font-size="14.00">AsyncInput&lt;= &#39;1&#39;</text>
<text text-anchor="start" x="10" y="-85.8" font-family="Times,serif" font-size="14.00"> wait &#160;for &#160;&#160;&#160;ASYNCINPUT_PERIOD/ 2 </text>
</g>
<!-- node5&#45;&gt;node1 -->
<g id="edge1" class="edge">
<title>node5&#45;&gt;node1</title>
<path fill="none" stroke="green" d="M122,-187.7C122,-180.43 122,-171.58 122,-162.55"/>
<polygon fill="green" stroke="green" points="125.5,-162.35 122,-152.35 118.5,-162.35 125.5,-162.35"/>
</g>
<!-- node6 -->
<g id="node3" class="node">
<title>node6</title>
<path fill="none" stroke="black" d="M156,-36C156,-36 88,-36 88,-36 82,-36 76,-30 76,-24 76,-24 76,-12 76,-12 76,-6 82,0 88,0 88,0 156,0 156,0 162,0 168,-6 168,-12 168,-12 168,-24 168,-24 168,-30 162,-36 156,-36"/>
<polygon fill="white" stroke="transparent" points="84,-10 84,-25 160,-25 160,-10 84,-10"/>
<text text-anchor="start" x="84" y="-13.8" font-family="Times,serif" font-size="14.00"> end process &#160;</text>
</g>
<!-- node1&#45;&gt;node6 -->
<g id="edge2" class="edge">
<title>node1&#45;&gt;node6</title>
<path fill="none" stroke="green" d="M122,-71.98C122,-63.27 122,-54.21 122,-46.1"/>
<polygon fill="green" stroke="green" points="125.5,-46.09 122,-36.09 118.5,-46.09 125.5,-46.09"/>
</g>
</g>
</svg>
