<?xml version="1.0" encoding="UTF-8" standalone="no"?>
<?xml-stylesheet href="doxygen.css" type="text/css"?>
<!DOCTYPE svg PUBLIC "-//W3C//DTD SVG 1.1//EN"
 "http://www.w3.org/Graphics/SVG/1.1/DTD/svg11.dtd">
<!-- Generated by graphviz version 2.43.0 (0)
 -->
<!-- Title: G Pages: 1 -->
<svg width="194pt" height="232pt"
 viewBox="0.00 0.00 194.00 232.00" xmlns="http://www.w3.org/2000/svg" xmlns:xlink="http://www.w3.org/1999/xlink">
<g id="graph0" class="graph" transform="scale(1 1) rotate(0) translate(4 228)">
<title>G</title>
<polygon fill="white" stroke="transparent" points="-4,4 -4,-228 190,-228 190,4 -4,4"/>
<!-- node5 -->
<g id="node1" class="node">
<title>node5</title>
<path fill="none" stroke="black" d="M153.5,-224C153.5,-224 32.5,-224 32.5,-224 26.5,-224 20.5,-218 20.5,-212 20.5,-212 20.5,-200 20.5,-200 20.5,-194 26.5,-188 32.5,-188 32.5,-188 153.5,-188 153.5,-188 159.5,-188 165.5,-194 165.5,-200 165.5,-200 165.5,-212 165.5,-212 165.5,-218 159.5,-224 153.5,-224"/>
<polygon fill="white" stroke="transparent" points="29,-198 29,-213 158,-213 158,-198 29,-198"/>
<text text-anchor="start" x="29" y="-201.8" font-family="Times,serif" font-size="14.00"> clk_process:process( ) </text>
</g>
<!-- node1 -->
<g id="node2" class="node">
<title>node1</title>
<polygon fill="lightcyan" stroke="transparent" points="7,-79 7,-145 179,-145 179,-79 7,-79"/>
<polygon fill="none" stroke="black" points="7,-79 7,-145 179,-145 179,-79 7,-79"/>
<text text-anchor="start" x="10" y="-130.8" font-family="Times,serif" font-size="14.00"> clk&lt;= &#39;0&#39;</text>
<text text-anchor="start" x="10" y="-115.8" font-family="Times,serif" font-size="14.00"> wait &#160;for &#160;&#160;&#160;CLK_PERIOD/ 2</text>
<text text-anchor="start" x="10" y="-100.8" font-family="Times,serif" font-size="14.00">clk&lt;= &#39;1&#39;</text>
<text text-anchor="start" x="10" y="-85.8" font-family="Times,serif" font-size="14.00"> wait &#160;for &#160;&#160;&#160;CLK_PERIOD/ 2 </text>
</g>
<!-- node5&#45;&gt;node1 -->
<g id="edge1" class="edge">
<title>node5&#45;&gt;node1</title>
<path fill="none" stroke="green" d="M93,-187.7C93,-180.43 93,-171.58 93,-162.55"/>
<polygon fill="green" stroke="green" points="96.5,-162.35 93,-152.35 89.5,-162.35 96.5,-162.35"/>
</g>
<!-- node6 -->
<g id="node3" class="node">
<title>node6</title>
<path fill="none" stroke="black" d="M127,-36C127,-36 59,-36 59,-36 53,-36 47,-30 47,-24 47,-24 47,-12 47,-12 47,-6 53,0 59,0 59,0 127,0 127,0 133,0 139,-6 139,-12 139,-12 139,-24 139,-24 139,-30 133,-36 127,-36"/>
<polygon fill="white" stroke="transparent" points="55,-10 55,-25 131,-25 131,-10 55,-10"/>
<text text-anchor="start" x="55" y="-13.8" font-family="Times,serif" font-size="14.00"> end process &#160;</text>
</g>
<!-- node1&#45;&gt;node6 -->
<g id="edge2" class="edge">
<title>node1&#45;&gt;node6</title>
<path fill="none" stroke="green" d="M93,-71.98C93,-63.27 93,-54.21 93,-46.1"/>
<polygon fill="green" stroke="green" points="96.5,-46.09 93,-36.09 89.5,-46.09 96.5,-46.09"/>
</g>
</g>
</svg>
