<?xml version="1.0" encoding="UTF-8" standalone="no"?>
<?xml-stylesheet href="doxygen.css" type="text/css"?>
<!DOCTYPE svg PUBLIC "-//W3C//DTD SVG 1.1//EN"
 "http://www.w3.org/Graphics/SVG/1.1/DTD/svg11.dtd">
<!-- Generated by graphviz version 2.43.0 (0)
 -->
<!-- Title: G Pages: 1 -->
<svg width="232pt" height="232pt"
 viewBox="0.00 0.00 232.00 232.00" xmlns="http://www.w3.org/2000/svg" xmlns:xlink="http://www.w3.org/1999/xlink">
<g id="graph0" class="graph" transform="scale(1 1) rotate(0) translate(4 228)">
<title>G</title>
<polygon fill="white" stroke="transparent" points="-4,4 -4,-228 228,-228 228,4 -4,4"/>
<!-- node5 -->
<g id="node1" class="node">
<title>node5</title>
<path fill="none" stroke="black" d="M177,-224C177,-224 47,-224 47,-224 41,-224 35,-218 35,-212 35,-212 35,-200 35,-200 35,-194 41,-188 47,-188 47,-188 177,-188 177,-188 183,-188 189,-194 189,-200 189,-200 189,-212 189,-212 189,-218 183,-224 177,-224"/>
<polygon fill="white" stroke="transparent" points="43,-198 43,-213 181,-213 181,-198 43,-198"/>
<text text-anchor="start" x="43" y="-201.8" font-family="Times,serif" font-size="14.00"> reset_process:process( ) </text>
</g>
<!-- node1 -->
<g id="node2" class="node">
<title>node1</title>
<polygon fill="lightcyan" stroke="transparent" points="7,-79 7,-145 217,-145 217,-79 7,-79"/>
<polygon fill="none" stroke="black" points="7,-79 7,-145 217,-145 217,-79 7,-79"/>
<text text-anchor="start" x="10" y="-130.8" font-family="Times,serif" font-size="14.00"> reset&lt;= &#39;1&#39;</text>
<text text-anchor="start" x="10" y="-115.8" font-family="Times,serif" font-size="14.00"> wait &#160;for &#160;10* &#160;&#160;CLK_PERIOD</text>
<text text-anchor="start" x="10" y="-100.8" font-family="Times,serif" font-size="14.00">reset&lt;= &#39;0&#39;</text>
<text text-anchor="start" x="10" y="-85.8" font-family="Times,serif" font-size="14.00"> wait &#160;&#160;&#160;&#160;&#160;&#160;&#160;&#160;&#160;&#160;&#160;&#160;&#160;&#160;&#160;&#160;&#160;&#160;&#160;&#160;&#160;&#160;&#160;&#160;&#160;&#160;&#160;&#160;&#160;&#160;&#160;&#160;&#160;&#160;&#160;&#160;&#160;&#160;&#160;&#160;&#160;&#160;&#160;&#160;. </text>
</g>
<!-- node5&#45;&gt;node1 -->
<g id="edge1" class="edge">
<title>node5&#45;&gt;node1</title>
<path fill="none" stroke="green" d="M112,-187.7C112,-180.43 112,-171.58 112,-162.55"/>
<polygon fill="green" stroke="green" points="115.5,-162.35 112,-152.35 108.5,-162.35 115.5,-162.35"/>
</g>
<!-- node6 -->
<g id="node3" class="node">
<title>node6</title>
<path fill="none" stroke="black" d="M146,-36C146,-36 78,-36 78,-36 72,-36 66,-30 66,-24 66,-24 66,-12 66,-12 66,-6 72,0 78,0 78,0 146,0 146,0 152,0 158,-6 158,-12 158,-12 158,-24 158,-24 158,-30 152,-36 146,-36"/>
<polygon fill="white" stroke="transparent" points="74,-10 74,-25 150,-25 150,-10 74,-10"/>
<text text-anchor="start" x="74" y="-13.8" font-family="Times,serif" font-size="14.00"> end process &#160;</text>
</g>
<!-- node1&#45;&gt;node6 -->
<g id="edge2" class="edge">
<title>node1&#45;&gt;node6</title>
<path fill="none" stroke="green" d="M112,-71.98C112,-63.27 112,-54.21 112,-46.1"/>
<polygon fill="green" stroke="green" points="115.5,-46.09 112,-36.09 108.5,-46.09 115.5,-46.09"/>
</g>
</g>
</svg>
