<?xml version="1.0" encoding="UTF-8" standalone="no"?>
<?xml-stylesheet href="doxygen.css" type="text/css"?>
<!DOCTYPE svg PUBLIC "-//W3C//DTD SVG 1.1//EN"
 "http://www.w3.org/Graphics/SVG/1.1/DTD/svg11.dtd">
<!-- Generated by graphviz version 2.43.0 (0)
 -->
<!-- Title: G Pages: 1 -->
<svg width="1702pt" height="827pt"
 viewBox="0.00 0.00 1702.00 827.00" xmlns="http://www.w3.org/2000/svg" xmlns:xlink="http://www.w3.org/1999/xlink">
<g id="graph0" class="graph" transform="scale(1 1) rotate(0) translate(4 823)">
<title>G</title>
<polygon fill="white" stroke="transparent" points="-4,4 -4,-823 1698,-823 1698,4 -4,4"/>
<!-- node15 -->
<g id="node1" class="node">
<title>node15</title>
<path fill="none" stroke="black" d="M654.5,-819C654.5,-819 183.5,-819 183.5,-819 177.5,-819 171.5,-813 171.5,-807 171.5,-807 171.5,-795 171.5,-795 171.5,-789 177.5,-783 183.5,-783 183.5,-783 654.5,-783 654.5,-783 660.5,-783 666.5,-789 666.5,-795 666.5,-795 666.5,-807 666.5,-807 666.5,-813 660.5,-819 654.5,-819"/>
<polygon fill="white" stroke="transparent" points="180,-793 180,-808 659,-808 659,-793 180,-793"/>
<text text-anchor="start" x="180" y="-796.8" font-family="Times,serif" font-size="14.00"> SamplingTDL:process( reset,clk,SampledTaps,SampledTaps_pipe) </text>
</g>
<!-- node1 -->
<g id="node2" class="node">
<title>node1</title>
<polygon fill="#c1b2ff" stroke="#c1b2ff" points="419,-746 276.56,-728 419,-710 561.44,-728 419,-746"/>
<text text-anchor="middle" x="419" y="-724.3" font-family="Times,serif" font-size="14.00"> if &#160;&#160;&#160;reset= &#39;1&#39; then</text>
</g>
<!-- node15&#45;&gt;node1 -->
<g id="edge1" class="edge">
<title>node15&#45;&gt;node1:n</title>
<path fill="none" stroke="green" d="M419,-782.98C419,-775.17 419,-765.56 419,-756.11"/>
<polygon fill="green" stroke="green" points="422.5,-756 419,-746 415.5,-756 422.5,-756"/>
</g>
<!-- node2 -->
<g id="node3" class="node">
<title>node2</title>
<polygon fill="lightcyan" stroke="transparent" points="7,-562 7,-598 281,-598 281,-562 7,-562"/>
<polygon fill="none" stroke="black" points="7,-562 7,-598 281,-598 281,-562 7,-562"/>
<text text-anchor="start" x="10" y="-583.8" font-family="Times,serif" font-size="14.00"> SampledTaps&lt;=( others =&gt; &#39;&#45;&#39;)</text>
<text text-anchor="start" x="10" y="-568.8" font-family="Times,serif" font-size="14.00">SampledTaps_pipe&lt;=( others =&gt; &#39;&#45;&#39;) </text>
</g>
<!-- node1&#45;&gt;node2 -->
<g id="edge2" class="edge">
<title>node1:s&#45;&gt;node2</title>
<path fill="none" stroke="red" d="M419,-710C419,-698.58 293.11,-643.56 211.68,-609.17"/>
<polygon fill="red" stroke="red" points="212.56,-605.74 201.98,-605.08 209.84,-612.19 212.56,-605.74"/>
<text text-anchor="middle" x="403.5" y="-680.8" font-family="Times,serif" font-size="14.00">yes</text>
</g>
<!-- node4 -->
<g id="node4" class="node">
<title>node4</title>
<polygon fill="#c1b2ff" stroke="#c1b2ff" points="758,-659 548.36,-641 758,-623 967.64,-641 758,-659"/>
<text text-anchor="middle" x="758" y="-637.3" font-family="Times,serif" font-size="14.00"> elsif &#160;&#160;&#160;rising_edge(clk &#160;) then</text>
</g>
<!-- node1&#45;&gt;node4 -->
<g id="edge3" class="edge">
<title>node1:s&#45;&gt;node4</title>
<path fill="none" stroke="black" d="M419,-710C419,-670.62 508.03,-653.75 594.84,-646.65"/>
<polygon fill="black" stroke="black" points="595.17,-650.14 604.86,-645.87 594.62,-643.16 595.17,-650.14"/>
<text text-anchor="middle" x="452" y="-680.8" font-family="Times,serif" font-size="14.00">no</text>
</g>
<!-- node10 -->
<g id="node8" class="node">
<title>node10</title>
<polygon fill="#c1b2ff" stroke="#c1b2ff" points="888,-304 610.33,-286 888,-268 1165.67,-286 888,-304"/>
<text text-anchor="middle" x="888" y="-282.3" font-family="Times,serif" font-size="14.00"> if &#160;&#160;&#160;BUFFERING_STAGE= &#160;&#160;TRUE then</text>
</g>
<!-- node2&#45;&gt;node10 -->
<g id="edge4" class="edge">
<title>node2&#45;&gt;node10:n</title>
<path fill="none" stroke="green" d="M55.08,-554.88C48.06,-549.98 41.83,-544.09 37,-537 27.99,-523.78 27.53,-513.89 37,-501 177.91,-309.22 313.78,-383.18 548,-341 585.23,-334.3 864.86,-352.93 888,-323"/>
<path fill="none" stroke="green" d="M888,-322C890.31,-319.12 890.49,-316.77 890.01,-314.29"/>
<polygon fill="green" stroke="green" points="893.42,-313.48 888,-304.37 886.56,-314.87 893.42,-313.48"/>
</g>
<!-- node5 -->
<g id="node5" class="node">
<title>node5</title>
<polygon fill="lightcyan" stroke="transparent" points="53,-508 53,-529 1464,-529 1464,-508 53,-508"/>
<polygon fill="none" stroke="black" points="53,-508 53,-529 1464,-529 1464,-508 53,-508"/>
<text text-anchor="start" x="56" y="-514.8" font-family="Times,serif" font-size="14.00"> SampledTaps&lt;= &#160;&#160;Sample_AsyncTapsTDL( &#160;&#160;TYPE_TDL, &#160;&#160;NUM_TAP_TDL, &#160;&#160;OFFSET_TAP_TDL, &#160;&#160;BIT_SMP_TDL, &#160;&#160;BIT_SMP_PRE_TDL, &#160;&#160;NUM_TAP_PRE_TDL, &#160;&#160;AsyncTaps_preTDL, &#160;&#160;AsyncTaps_TDL) </text>
</g>
<!-- node4&#45;&gt;node5 -->
<g id="edge5" class="edge">
<title>node4&#45;&gt;node5</title>
<path fill="none" stroke="red" d="M758,-622.81C758,-603.11 758,-570.58 758,-547.39"/>
<polygon fill="red" stroke="red" points="761.5,-547.16 758,-537.16 754.5,-547.16 761.5,-547.16"/>
<text text-anchor="middle" x="770.5" y="-576.3" font-family="Times,serif" font-size="14.00">yes</text>
</g>
<!-- node4&#45;&gt;node10 -->
<g id="edge6" class="edge">
<title>node4&#45;&gt;node10:n</title>
<path fill="none" stroke="black" d="M866.19,-632.27C1057.56,-617.5 1439.44,-582.61 1479,-537 1489.48,-524.91 1488.54,-513.84 1479,-501 1458.55,-473.48 866.52,-349.73 888,-323"/>
<text text-anchor="middle" x="1376" y="-442.3" font-family="Times,serif" font-size="14.00">no</text>
</g>
<!-- node6 -->
<g id="node6" class="node">
<title>node6</title>
<polygon fill="#c1b2ff" stroke="#c1b2ff" points="758,-464 480.33,-446 758,-428 1035.67,-446 758,-464"/>
<text text-anchor="middle" x="758" y="-442.3" font-family="Times,serif" font-size="14.00"> if &#160;&#160;&#160;BUFFERING_STAGE= &#160;&#160;TRUE then</text>
</g>
<!-- node5&#45;&gt;node6 -->
<g id="edge7" class="edge">
<title>node5&#45;&gt;node6:n</title>
<path fill="none" stroke="green" d="M758,-500.98C758,-493.17 758,-483.56 758,-474.11"/>
<polygon fill="green" stroke="green" points="761.5,-474 758,-464 754.5,-474 761.5,-474"/>
</g>
<!-- node7 -->
<g id="node7" class="node">
<title>node7</title>
<polygon fill="lightcyan" stroke="transparent" points="564,-348 564,-369 845,-369 845,-348 564,-348"/>
<polygon fill="none" stroke="black" points="564,-348 564,-369 845,-369 845,-348 564,-348"/>
<text text-anchor="start" x="567" y="-354.8" font-family="Times,serif" font-size="14.00"> SampledTaps_pipe&lt;= &#160;&#160;SampledTaps </text>
</g>
<!-- node6&#45;&gt;node7 -->
<g id="edge8" class="edge">
<title>node6:s&#45;&gt;node7</title>
<path fill="none" stroke="red" d="M758,-428C758,-410.9 747.39,-395.6 735.58,-383.86"/>
<polygon fill="red" stroke="red" points="737.89,-381.23 728.16,-377.03 733.15,-386.38 737.89,-381.23"/>
<text text-anchor="middle" x="765.5" y="-398.8" font-family="Times,serif" font-size="14.00">yes</text>
</g>
<!-- node6&#45;&gt;node10 -->
<g id="edge9" class="edge">
<title>node6:s&#45;&gt;node10:n</title>
<path fill="none" stroke="black" d="M758,-428C758,-415.23 851.95,-386.01 861,-377 880.01,-358.06 871.63,-344.26 888,-323"/>
<text text-anchor="middle" x="887" y="-355.3" font-family="Times,serif" font-size="14.00">no</text>
</g>
<!-- node7&#45;&gt;node10 -->
<g id="edge10" class="edge">
<title>node7&#45;&gt;node10:n</title>
<path fill="none" stroke="green" d="M851.53,-341.58C868.56,-336.86 882,-330.79 888,-323"/>
</g>
<!-- node11 -->
<g id="node9" class="node">
<title>node11</title>
<polygon fill="lightcyan" stroke="transparent" points="385,-134 385,-155 1223,-155 1223,-134 385,-134"/>
<polygon fill="none" stroke="black" points="385,-134 385,-155 1223,-155 1223,-134 385,-134"/>
<text text-anchor="start" x="388" y="-140.8" font-family="Times,serif" font-size="14.00"> SampledTaps_TDL&lt;= &#160;&#160;SampledTaps_pipe( &#160;&#160;BIT_SMP_TDL+ &#160;&#160;BIT_SMP_PRE_TDL&#45; 1 downto &#160;&#160;&#160;BIT_SMP_PRE_TDL) </text>
</g>
<!-- node10&#45;&gt;node11 -->
<g id="edge11" class="edge">
<title>node10:s&#45;&gt;node11</title>
<path fill="none" stroke="red" d="M888,-268C888,-256.37 876.36,-259 869,-250 848.8,-225.31 829.98,-193.89 817.85,-172.08"/>
<polygon fill="red" stroke="red" points="820.79,-170.17 812.91,-163.09 814.65,-173.54 820.79,-170.17"/>
<text text-anchor="middle" x="881.5" y="-238.8" font-family="Times,serif" font-size="14.00">yes</text>
</g>
<!-- node12 -->
<g id="node10" class="node">
<title>node12</title>
<polygon fill="#c1b2ff" stroke="#c1b2ff" points="1253,-217 951.53,-199 1253,-181 1554.47,-199 1253,-217"/>
<text text-anchor="middle" x="1253" y="-195.3" font-family="Times,serif" font-size="14.00"> elsif &#160;&#160;&#160;BUFFERING_STAGE= &#160;&#160;FALSE then</text>
</g>
<!-- node10&#45;&gt;node12 -->
<g id="edge12" class="edge">
<title>node10:s&#45;&gt;node12</title>
<path fill="none" stroke="black" d="M888,-268C888,-231.57 959.17,-214.05 1038.65,-205.85"/>
<polygon fill="black" stroke="black" points="1039.28,-209.3 1048.89,-204.85 1038.6,-202.34 1039.28,-209.3"/>
<text text-anchor="middle" x="922" y="-238.8" font-family="Times,serif" font-size="14.00">no</text>
</g>
<!-- node16 -->
<g id="node12" class="node">
<title>node16</title>
<path fill="none" stroke="black" d="M1286,-36C1286,-36 1194,-36 1194,-36 1188,-36 1182,-30 1182,-24 1182,-24 1182,-12 1182,-12 1182,-6 1188,0 1194,0 1194,0 1286,0 1286,0 1292,0 1298,-6 1298,-12 1298,-12 1298,-24 1298,-24 1298,-30 1292,-36 1286,-36"/>
<polygon fill="white" stroke="transparent" points="1190,-10 1190,-25 1290,-25 1290,-10 1190,-10"/>
<text text-anchor="start" x="1190" y="-13.8" font-family="Times,serif" font-size="14.00"> end process &#160;</text>
</g>
<!-- node11&#45;&gt;node16 -->
<g id="edge13" class="edge">
<title>node11&#45;&gt;node16</title>
<path fill="none" stroke="green" d="M803.55,-126.9C804.14,-110.27 807.94,-85.72 824,-73 842.14,-58.64 1240.84,-78.12 1240,-55"/>
<path fill="none" stroke="green" d="M1240,-54C1239.79,-51.46 1239.65,-48.81 1239.56,-46.15"/>
<polygon fill="green" stroke="green" points="1243.06,-46.07 1239.44,-36.11 1236.06,-46.15 1243.06,-46.07"/>
</g>
<!-- node13 -->
<g id="node11" class="node">
<title>node13</title>
<polygon fill="lightcyan" stroke="transparent" points="840,-80 840,-101 1641,-101 1641,-80 840,-80"/>
<polygon fill="none" stroke="black" points="840,-80 840,-101 1641,-101 1641,-80 840,-80"/>
<text text-anchor="start" x="843" y="-86.8" font-family="Times,serif" font-size="14.00"> SampledTaps_TDL&lt;= &#160;&#160;SampledTaps( &#160;&#160;BIT_SMP_TDL+ &#160;&#160;BIT_SMP_PRE_TDL&#45; 1 downto &#160;&#160;&#160;BIT_SMP_PRE_TDL) </text>
</g>
<!-- node12&#45;&gt;node13 -->
<g id="edge14" class="edge">
<title>node12&#45;&gt;node13</title>
<path fill="none" stroke="red" d="M1250.91,-180.97C1248.88,-164.38 1245.75,-138.88 1243.36,-119.43"/>
<polygon fill="red" stroke="red" points="1246.82,-118.84 1242.13,-109.34 1239.87,-119.69 1246.82,-118.84"/>
<text text-anchor="middle" x="1260.5" y="-141.3" font-family="Times,serif" font-size="14.00">yes</text>
</g>
<!-- node12&#45;&gt;node16 -->
<g id="edge15" class="edge">
<title>node12&#45;&gt;node16</title>
<path fill="none" stroke="black" d="M1442.96,-192.34C1581.63,-181.73 1733.11,-152.47 1657,-73 1624.92,-39.51 1243.77,-101.22 1240,-55"/>
<text text-anchor="middle" x="1685" y="-87.3" font-family="Times,serif" font-size="14.00">no</text>
</g>
<!-- node13&#45;&gt;node16 -->
<g id="edge16" class="edge">
<title>node13&#45;&gt;node16</title>
<path fill="none" stroke="green" d="M1240.25,-72.91C1240.27,-67.21 1240.21,-60.83 1240,-55"/>
</g>
</g>
</svg>
