<?xml version="1.0" encoding="UTF-8" standalone="no"?>
<?xml-stylesheet href="doxygen.css" type="text/css"?>
<!DOCTYPE svg PUBLIC "-//W3C//DTD SVG 1.1//EN"
 "http://www.w3.org/Graphics/SVG/1.1/DTD/svg11.dtd">
<!-- Generated by graphviz version 2.43.0 (0)
 -->
<!-- Title: G Pages: 1 -->
<svg width="1428pt" height="827pt"
 viewBox="0.00 0.00 1428.00 827.00" xmlns="http://www.w3.org/2000/svg" xmlns:xlink="http://www.w3.org/1999/xlink">
<g id="graph0" class="graph" transform="scale(1 1) rotate(0) translate(4 823)">
<title>G</title>
<polygon fill="white" stroke="transparent" points="-4,4 -4,-823 1424,-823 1424,4 -4,4"/>
<!-- node15 -->
<g id="node1" class="node">
<title>node15</title>
<path fill="none" stroke="black" d="M536,-819C536,-819 168,-819 168,-819 162,-819 156,-813 156,-807 156,-807 156,-795 156,-795 156,-789 162,-783 168,-783 168,-783 536,-783 536,-783 542,-783 548,-789 548,-795 548,-795 548,-807 548,-807 548,-813 542,-819 536,-819"/>
<polygon fill="white" stroke="transparent" points="164,-793 164,-808 540,-808 540,-793 164,-793"/>
<text text-anchor="start" x="164" y="-796.8" font-family="Times,serif" font-size="14.00"> SamplingTDL:process( reset,clk,SampledTaps,SampledTaps_pipe) </text>
</g>
<!-- node1 -->
<g id="node2" class="node">
<title>node1</title>
<polygon fill="#c1b2ff" stroke="#c1b2ff" points="352,-746 242.74,-728 352,-710 461.26,-728 352,-746"/>
<text text-anchor="middle" x="352" y="-724.3" font-family="Times,serif" font-size="14.00"> if &#160;&#160;&#160;reset= &#39;1&#39; then</text>
</g>
<!-- node15&#45;&gt;node1 -->
<g id="edge1" class="edge">
<title>node15&#45;&gt;node1:n</title>
<path fill="none" stroke="green" d="M352,-782.98C352,-775.17 352,-765.56 352,-756.11"/>
<polygon fill="green" stroke="green" points="355.5,-756 352,-746 348.5,-756 355.5,-756"/>
</g>
<!-- node2 -->
<g id="node3" class="node">
<title>node2</title>
<polygon fill="lightcyan" stroke="transparent" points="7,-562 7,-598 217,-598 217,-562 7,-562"/>
<polygon fill="none" stroke="black" points="7,-562 7,-598 217,-598 217,-562 7,-562"/>
<text text-anchor="start" x="10" y="-583.8" font-family="Times,serif" font-size="14.00"> SampledTaps&lt;=( others =&gt; &#39;&#45;&#39;)</text>
<text text-anchor="start" x="10" y="-568.8" font-family="Times,serif" font-size="14.00">SampledTaps_pipe&lt;=( others =&gt; &#39;&#45;&#39;) </text>
</g>
<!-- node1&#45;&gt;node2 -->
<g id="edge2" class="edge">
<title>node1:s&#45;&gt;node2</title>
<path fill="none" stroke="red" d="M352,-710C352,-690.14 248.69,-640.81 177.63,-609.23"/>
<polygon fill="red" stroke="red" points="178.83,-605.93 168.27,-605.09 176,-612.33 178.83,-605.93"/>
<text text-anchor="middle" x="346.5" y="-680.8" font-family="Times,serif" font-size="14.00">yes</text>
</g>
<!-- node4 -->
<g id="node4" class="node">
<title>node4</title>
<polygon fill="#c1b2ff" stroke="#c1b2ff" points="635,-659 467.93,-641 635,-623 802.07,-641 635,-659"/>
<text text-anchor="middle" x="635" y="-637.3" font-family="Times,serif" font-size="14.00"> elsif &#160;&#160;&#160;rising_edge(clk &#160;) then</text>
</g>
<!-- node1&#45;&gt;node4 -->
<g id="edge3" class="edge">
<title>node1:s&#45;&gt;node4</title>
<path fill="none" stroke="black" d="M352,-710C352,-673.54 441.95,-656.57 520.43,-648.71"/>
<polygon fill="black" stroke="black" points="520.81,-652.19 530.43,-647.75 520.14,-645.23 520.81,-652.19"/>
<text text-anchor="middle" x="389" y="-680.8" font-family="Times,serif" font-size="14.00">no</text>
</g>
<!-- node10 -->
<g id="node8" class="node">
<title>node10</title>
<polygon fill="#c1b2ff" stroke="#c1b2ff" points="742,-304 512.42,-286 742,-268 971.58,-286 742,-304"/>
<text text-anchor="middle" x="742" y="-282.3" font-family="Times,serif" font-size="14.00"> if &#160;&#160;&#160;BUFFERING_STAGE= &#160;&#160;TRUE then</text>
</g>
<!-- node2&#45;&gt;node10 -->
<g id="edge4" class="edge">
<title>node2&#45;&gt;node10:n</title>
<path fill="none" stroke="green" d="M38.31,-554.81C31.51,-549.91 25.5,-544.04 21,-537 12.38,-523.52 11.81,-514.1 21,-501 140.98,-329.97 258.49,-383.71 463,-341 493.41,-334.65 723.62,-348.05 742,-323"/>
<path fill="none" stroke="green" d="M742,-322C744.24,-319.07 744.41,-316.71 743.95,-314.24"/>
<polygon fill="green" stroke="green" points="747.37,-313.51 742,-304.37 740.5,-314.86 747.37,-313.51"/>
</g>
<!-- node5 -->
<g id="node5" class="node">
<title>node5</title>
<polygon fill="lightcyan" stroke="transparent" points="37,-508 37,-529 1233,-529 1233,-508 37,-508"/>
<polygon fill="none" stroke="black" points="37,-508 37,-529 1233,-529 1233,-508 37,-508"/>
<text text-anchor="start" x="40" y="-514.8" font-family="Times,serif" font-size="14.00"> SampledTaps&lt;= &#160;&#160;Sample_AsyncTapsTDL( &#160;&#160;TYPE_TDL, &#160;&#160;NUM_TAP_TDL, &#160;&#160;OFFSET_TAP_TDL, &#160;&#160;BIT_SMP_TDL, &#160;&#160;BIT_SMP_PRE_TDL, &#160;&#160;NUM_TAP_PRE_TDL, &#160;&#160;AsyncTaps_preTDL, &#160;&#160;AsyncTaps_TDL) </text>
</g>
<!-- node4&#45;&gt;node5 -->
<g id="edge5" class="edge">
<title>node4&#45;&gt;node5</title>
<path fill="none" stroke="red" d="M635,-622.81C635,-603.11 635,-570.58 635,-547.39"/>
<polygon fill="red" stroke="red" points="638.5,-547.16 635,-537.16 631.5,-547.16 638.5,-547.16"/>
<text text-anchor="middle" x="644.5" y="-576.3" font-family="Times,serif" font-size="14.00">yes</text>
</g>
<!-- node4&#45;&gt;node10 -->
<g id="edge6" class="edge">
<title>node4&#45;&gt;node10:n</title>
<path fill="none" stroke="black" d="M766.33,-637.1C927.94,-630.44 1188.43,-608.58 1249,-537 1259.34,-524.79 1258.25,-514.05 1249,-501 1214.48,-452.29 705.76,-370.45 742,-323"/>
<text text-anchor="middle" x="1171" y="-442.3" font-family="Times,serif" font-size="14.00">no</text>
</g>
<!-- node6 -->
<g id="node6" class="node">
<title>node6</title>
<polygon fill="#c1b2ff" stroke="#c1b2ff" points="635,-464 405.42,-446 635,-428 864.58,-446 635,-464"/>
<text text-anchor="middle" x="635" y="-442.3" font-family="Times,serif" font-size="14.00"> if &#160;&#160;&#160;BUFFERING_STAGE= &#160;&#160;TRUE then</text>
</g>
<!-- node5&#45;&gt;node6 -->
<g id="edge7" class="edge">
<title>node5&#45;&gt;node6:n</title>
<path fill="none" stroke="green" d="M635,-500.98C635,-493.17 635,-483.56 635,-474.11"/>
<polygon fill="green" stroke="green" points="638.5,-474 635,-464 631.5,-474 638.5,-474"/>
</g>
<!-- node7 -->
<g id="node7" class="node">
<title>node7</title>
<polygon fill="lightcyan" stroke="transparent" points="479,-348 479,-369 699,-369 699,-348 479,-348"/>
<polygon fill="none" stroke="black" points="479,-348 479,-369 699,-369 699,-348 479,-348"/>
<text text-anchor="start" x="482" y="-354.8" font-family="Times,serif" font-size="14.00"> SampledTaps_pipe&lt;= &#160;&#160;SampledTaps </text>
</g>
<!-- node6&#45;&gt;node7 -->
<g id="edge8" class="edge">
<title>node6:s&#45;&gt;node7</title>
<path fill="none" stroke="red" d="M635,-428C635,-411.9 626.05,-396.77 616.04,-384.89"/>
<polygon fill="red" stroke="red" points="618.37,-382.25 609.04,-377.21 613.19,-386.96 618.37,-382.25"/>
<text text-anchor="middle" x="640.5" y="-398.8" font-family="Times,serif" font-size="14.00">yes</text>
</g>
<!-- node6&#45;&gt;node10 -->
<g id="edge9" class="edge">
<title>node6:s&#45;&gt;node10:n</title>
<path fill="none" stroke="black" d="M635,-428C635,-417.46 707.94,-384.83 715,-377 732.96,-357.07 726.2,-344.68 742,-323"/>
<text text-anchor="middle" x="739" y="-355.3" font-family="Times,serif" font-size="14.00">no</text>
</g>
<!-- node7&#45;&gt;node10 -->
<g id="edge10" class="edge">
<title>node7&#45;&gt;node10:n</title>
<path fill="none" stroke="green" d="M706.15,-341.31C722.99,-336.55 736.5,-330.54 742,-323"/>
</g>
<!-- node11 -->
<g id="node9" class="node">
<title>node11</title>
<polygon fill="lightcyan" stroke="transparent" points="321,-134 321,-155 1019,-155 1019,-134 321,-134"/>
<polygon fill="none" stroke="black" points="321,-134 321,-155 1019,-155 1019,-134 321,-134"/>
<text text-anchor="start" x="324" y="-140.8" font-family="Times,serif" font-size="14.00"> SampledTaps_TDL&lt;= &#160;&#160;SampledTaps_pipe( &#160;&#160;BIT_SMP_TDL+ &#160;&#160;BIT_SMP_PRE_TDL&#45; 1 downto &#160;&#160;&#160;BIT_SMP_PRE_TDL) </text>
</g>
<!-- node10&#45;&gt;node11 -->
<g id="edge11" class="edge">
<title>node10:s&#45;&gt;node11</title>
<path fill="none" stroke="red" d="M742,-268C742,-257.59 732.86,-258.61 727,-250 709.81,-224.77 693.41,-193.87 682.65,-172.34"/>
<polygon fill="red" stroke="red" points="685.69,-170.58 678.12,-163.16 679.41,-173.68 685.69,-170.58"/>
<text text-anchor="middle" x="736.5" y="-238.8" font-family="Times,serif" font-size="14.00">yes</text>
</g>
<!-- node12 -->
<g id="node10" class="node">
<title>node12</title>
<polygon fill="#c1b2ff" stroke="#c1b2ff" points="1049,-217 798.98,-199 1049,-181 1299.02,-199 1049,-217"/>
<text text-anchor="middle" x="1049" y="-195.3" font-family="Times,serif" font-size="14.00"> elsif &#160;&#160;&#160;BUFFERING_STAGE= &#160;&#160;FALSE then</text>
</g>
<!-- node10&#45;&gt;node12 -->
<g id="edge12" class="edge">
<title>node10:s&#45;&gt;node12</title>
<path fill="none" stroke="black" d="M742,-268C742,-233.06 818.75,-216.06 895.51,-207.8"/>
<polygon fill="black" stroke="black" points="896.25,-211.24 905.84,-206.73 895.53,-204.28 896.25,-211.24"/>
<text text-anchor="middle" x="775" y="-238.8" font-family="Times,serif" font-size="14.00">no</text>
</g>
<!-- node16 -->
<g id="node12" class="node">
<title>node16</title>
<path fill="none" stroke="black" d="M1073,-36C1073,-36 1005,-36 1005,-36 999,-36 993,-30 993,-24 993,-24 993,-12 993,-12 993,-6 999,0 1005,0 1005,0 1073,0 1073,0 1079,0 1085,-6 1085,-12 1085,-12 1085,-24 1085,-24 1085,-30 1079,-36 1073,-36"/>
<polygon fill="white" stroke="transparent" points="1001,-10 1001,-25 1077,-25 1077,-10 1001,-10"/>
<text text-anchor="start" x="1001" y="-13.8" font-family="Times,serif" font-size="14.00"> end process &#160;</text>
</g>
<!-- node11&#45;&gt;node16 -->
<g id="edge13" class="edge">
<title>node11&#45;&gt;node16</title>
<path fill="none" stroke="green" d="M669.32,-126.95C669.68,-110.37 673.13,-85.84 689,-73 719.27,-48.5 1040.42,-93.91 1039,-55"/>
<path fill="none" stroke="green" d="M1039,-54C1038.8,-51.46 1038.67,-48.8 1038.59,-46.15"/>
<polygon fill="green" stroke="green" points="1042.09,-46.07 1038.47,-36.11 1035.09,-46.15 1042.09,-46.07"/>
</g>
<!-- node13 -->
<g id="node11" class="node">
<title>node13</title>
<polygon fill="lightcyan" stroke="transparent" points="705,-80 705,-101 1373,-101 1373,-80 705,-80"/>
<polygon fill="none" stroke="black" points="705,-80 705,-101 1373,-101 1373,-80 705,-80"/>
<text text-anchor="start" x="708" y="-86.8" font-family="Times,serif" font-size="14.00"> SampledTaps_TDL&lt;= &#160;&#160;SampledTaps( &#160;&#160;BIT_SMP_TDL+ &#160;&#160;BIT_SMP_PRE_TDL&#45; 1 downto &#160;&#160;&#160;BIT_SMP_PRE_TDL) </text>
</g>
<!-- node12&#45;&gt;node13 -->
<g id="edge14" class="edge">
<title>node12&#45;&gt;node13</title>
<path fill="none" stroke="red" d="M1047.39,-180.97C1045.83,-164.38 1043.42,-138.88 1041.59,-119.43"/>
<polygon fill="red" stroke="red" points="1045.06,-118.97 1040.64,-109.34 1038.09,-119.63 1045.06,-118.97"/>
<text text-anchor="middle" x="1054.5" y="-141.3" font-family="Times,serif" font-size="14.00">yes</text>
</g>
<!-- node12&#45;&gt;node16 -->
<g id="edge15" class="edge">
<title>node12&#45;&gt;node16</title>
<path fill="none" stroke="black" d="M1176.69,-190.15C1300.52,-178.05 1460.03,-147.78 1389,-73 1362.18,-44.77 1042,-93.82 1039,-55"/>
<text text-anchor="middle" x="1413" y="-87.3" font-family="Times,serif" font-size="14.00">no</text>
</g>
<!-- node13&#45;&gt;node16 -->
<g id="edge16" class="edge">
<title>node13&#45;&gt;node16</title>
<path fill="none" stroke="green" d="M1039.25,-72.91C1039.27,-67.21 1039.21,-60.83 1039,-55"/>
</g>
</g>
</svg>
