<?xml version="1.0" encoding="UTF-8" standalone="no"?>
<?xml-stylesheet href="doxygen.css" type="text/css"?>
<!DOCTYPE svg PUBLIC "-//W3C//DTD SVG 1.1//EN"
 "http://www.w3.org/Graphics/SVG/1.1/DTD/svg11.dtd">
<!-- Generated by graphviz version 2.43.0 (0)
 -->
<!-- Title: G Pages: 1 -->
<svg width="501pt" height="393pt"
 viewBox="0.00 0.00 501.18 393.00" xmlns="http://www.w3.org/2000/svg" xmlns:xlink="http://www.w3.org/1999/xlink">
<g id="graph0" class="graph" transform="scale(1 1) rotate(0) translate(4 389)">
<title>G</title>
<polygon fill="white" stroke="transparent" points="-4,4 -4,-389 497.18,-389 497.18,4 -4,4"/>
<!-- node8 -->
<g id="node1" class="node">
<title>node8</title>
<path fill="none" stroke="black" d="M329,-385C329,-385 231,-385 231,-385 225,-385 219,-379 219,-373 219,-373 219,-361 219,-361 219,-355 225,-349 231,-349 231,-349 329,-349 329,-349 335,-349 341,-355 341,-361 341,-361 341,-373 341,-373 341,-379 335,-385 329,-385"/>
<polygon fill="white" stroke="transparent" points="227,-359 227,-374 333,-374 333,-359 227,-359"/>
<text text-anchor="start" x="227" y="-362.8" font-family="Times,serif" font-size="14.00"> SimCO:process( ) </text>
</g>
<!-- node1 -->
<g id="node2" class="node">
<title>node1</title>
<polygon fill="lightcyan" stroke="transparent" points="197,-253.5 197,-304.5 363,-304.5 363,-253.5 197,-253.5"/>
<polygon fill="none" stroke="black" points="197,-253.5 197,-304.5 363,-304.5 363,-253.5 197,-253.5"/>
<text text-anchor="start" x="200" y="-290.3" font-family="Times,serif" font-size="14.00"> &#160;wait &#160;on AsyncInput</text>
<text text-anchor="start" x="200" y="-275.3" font-family="Times,serif" font-size="14.00">CO_tmp( 0)&lt;= &#160;&#160;AsyncInput</text>
<text text-anchor="start" x="200" y="-260.3" font-family="Times,serif" font-size="14.00"> wait &#160;for &#160;&#160;&#160;CO_DELAY( 0) </text>
</g>
<!-- node8&#45;&gt;node1 -->
<g id="edge1" class="edge">
<title>node8&#45;&gt;node1</title>
<path fill="none" stroke="green" d="M280,-348.7C280,-341.03 280,-331.64 280,-322.32"/>
<polygon fill="green" stroke="green" points="283.5,-322.3 280,-312.3 276.5,-322.3 283.5,-322.3"/>
</g>
<!-- node4 -->
<g id="node3" class="node">
<title>node4</title>
<polygon fill="#c1b2ff" stroke="#c1b2ff" points="280,-210 74.22,-192 280,-174 485.78,-192 280,-210"/>
<text text-anchor="middle" x="280" y="-188.3" font-family="Times,serif" font-size="14.00"> &#160;for I in &#160;1 to &#160;&#160;&#160;CO&#39;LENGTH&#45; 1 loop</text>
</g>
<!-- node1&#45;&gt;node4 -->
<g id="edge2" class="edge">
<title>node1&#45;&gt;node4:n</title>
<path fill="none" stroke="green" d="M280,-246.78C280,-238.37 280,-229.11 280,-220.06"/>
<polygon fill="green" stroke="green" points="283.5,-220 280,-210 276.5,-220 283.5,-220"/>
</g>
<!-- node5 -->
<g id="node4" class="node">
<title>node5</title>
<polygon fill="lightcyan" stroke="transparent" points="7,-80 7,-116 209,-116 209,-80 7,-80"/>
<polygon fill="none" stroke="black" points="7,-80 7,-116 209,-116 209,-80 7,-80"/>
<text text-anchor="start" x="10" y="-101.8" font-family="Times,serif" font-size="14.00"> CO_tmp(I &#160;)&lt;= &#160;&#160;CO_tmp( &#160;&#160;I&#45; 1)</text>
<text text-anchor="start" x="10" y="-86.8" font-family="Times,serif" font-size="14.00"> wait &#160;for &#160;&#160;&#160;CO_DELAY(I &#160;) &#160;&#160;&#160;&#160;&#160;&#160;&#160;. </text>
</g>
<!-- node4&#45;&gt;node5 -->
<g id="edge3" class="edge">
<title>node4:s&#45;&gt;node5</title>
<path fill="none" stroke="red" d="M280,-174C280,-168.2 226.71,-145.62 179.45,-126.73"/>
<polygon fill="red" stroke="red" points="180.68,-123.46 170.1,-123.01 178.09,-129.96 180.68,-123.46"/>
<text text-anchor="middle" x="256.5" y="-144.8" font-family="Times,serif" font-size="14.00">yes</text>
</g>
<!-- node9 -->
<g id="node6" class="node">
<title>node9</title>
<path fill="none" stroke="black" d="M314,-116C314,-116 246,-116 246,-116 240,-116 234,-110 234,-104 234,-104 234,-92 234,-92 234,-86 240,-80 246,-80 246,-80 314,-80 314,-80 320,-80 326,-86 326,-92 326,-92 326,-104 326,-104 326,-110 320,-116 314,-116"/>
<polygon fill="white" stroke="transparent" points="242,-90 242,-105 318,-105 318,-90 242,-90"/>
<text text-anchor="start" x="242" y="-93.8" font-family="Times,serif" font-size="14.00"> end process &#160;</text>
</g>
<!-- node4&#45;&gt;node9 -->
<g id="edge4" class="edge">
<title>node4:s&#45;&gt;node9</title>
<path fill="none" stroke="black" d="M280,-174C280,-158.23 280,-140.59 280,-126.38"/>
<polygon fill="black" stroke="black" points="283.5,-126.28 280,-116.28 276.5,-126.28 283.5,-126.28"/>
<text text-anchor="middle" x="287" y="-144.8" font-family="Times,serif" font-size="14.00">no</text>
</g>
<!-- node7 -->
<g id="node5" class="node">
<title>node7</title>
<ellipse fill="none" stroke="black" cx="231" cy="-18" rx="41.69" ry="18"/>
<text text-anchor="middle" x="231" y="-14.3" font-family="Times,serif" font-size="14.00">end loop</text>
</g>
<!-- node5&#45;&gt;node7 -->
<g id="edge5" class="edge">
<title>node5&#45;&gt;node7</title>
<path fill="none" stroke="green" d="M145.91,-72.96C163.18,-62.01 183.38,-49.2 199.76,-38.81"/>
<polygon fill="green" stroke="green" points="201.85,-41.63 208.43,-33.32 198.11,-35.72 201.85,-41.63"/>
</g>
<!-- node7&#45;&gt;node4 -->
<g id="edge6" class="edge">
<title>node7&#45;&gt;node4:n</title>
<path fill="none" stroke="green" d="M266.16,-27.95C324.68,-45.01 440.15,-88.34 485.89,-174 493.43,-188.11 497.18,-198.66 485.89,-210 478.88,-217.05 328.52,-221.24 289.29,-214.71"/>
<polygon fill="green" stroke="green" points="290.59,-211.45 280,-211 287.99,-217.96 290.59,-211.45"/>
</g>
</g>
</svg>
