<?xml version="1.0" encoding="UTF-8" standalone="no"?>
<?xml-stylesheet href="doxygen.css" type="text/css"?>
<!DOCTYPE svg PUBLIC "-//W3C//DTD SVG 1.1//EN"
 "http://www.w3.org/Graphics/SVG/1.1/DTD/svg11.dtd">
<!-- Generated by graphviz version 2.43.0 (0)
 -->
<!-- Title: G Pages: 1 -->
<svg width="591pt" height="393pt"
 viewBox="0.00 0.00 591.14 393.00" xmlns="http://www.w3.org/2000/svg" xmlns:xlink="http://www.w3.org/1999/xlink">
<g id="graph0" class="graph" transform="scale(1 1) rotate(0) translate(4 389)">
<title>G</title>
<polygon fill="white" stroke="transparent" points="-4,4 -4,-389 587.14,-389 587.14,4 -4,4"/>
<!-- node8 -->
<g id="node1" class="node">
<title>node8</title>
<path fill="none" stroke="black" d="M390,-385C390,-385 265,-385 265,-385 259,-385 253,-379 253,-373 253,-373 253,-361 253,-361 253,-355 259,-349 265,-349 265,-349 390,-349 390,-349 396,-349 402,-355 402,-361 402,-361 402,-373 402,-373 402,-379 396,-385 390,-385"/>
<polygon fill="white" stroke="transparent" points="261.5,-359 261.5,-374 394.5,-374 394.5,-359 261.5,-359"/>
<text text-anchor="start" x="261.5" y="-362.8" font-family="Times,serif" font-size="14.00"> SimCO:process( ) </text>
</g>
<!-- node1 -->
<g id="node2" class="node">
<title>node1</title>
<polygon fill="lightcyan" stroke="transparent" points="225.5,-253.5 225.5,-304.5 430.5,-304.5 430.5,-253.5 225.5,-253.5"/>
<polygon fill="none" stroke="black" points="225.5,-253.5 225.5,-304.5 430.5,-304.5 430.5,-253.5 225.5,-253.5"/>
<text text-anchor="start" x="228.5" y="-290.3" font-family="Times,serif" font-size="14.00"> &#160;wait &#160;on AsyncInput</text>
<text text-anchor="start" x="228.5" y="-275.3" font-family="Times,serif" font-size="14.00">CO_tmp( 0)&lt;= &#160;&#160;AsyncInput</text>
<text text-anchor="start" x="233" y="-260.3" font-family="Times,serif" font-size="14.00"> wait &#160;for &#160;&#160;&#160;CO_DELAY( 0) </text>
</g>
<!-- node8&#45;&gt;node1 -->
<g id="edge1" class="edge">
<title>node8&#45;&gt;node1</title>
<path fill="none" stroke="green" d="M327.5,-348.7C327.5,-341.03 327.5,-331.64 327.5,-322.32"/>
<polygon fill="green" stroke="green" points="331,-322.3 327.5,-312.3 324,-322.3 331,-322.3"/>
</g>
<!-- node4 -->
<g id="node3" class="node">
<title>node4</title>
<polygon fill="#c1b2ff" stroke="#c1b2ff" points="327.5,-210 79.15,-192 327.5,-174 575.85,-192 327.5,-210"/>
<text text-anchor="middle" x="327.5" y="-188.3" font-family="Times,serif" font-size="14.00"> &#160;for I in &#160;1 to &#160;&#160;&#160;CO&#39;LENGTH&#45; 1 loop</text>
</g>
<!-- node1&#45;&gt;node4 -->
<g id="edge2" class="edge">
<title>node1&#45;&gt;node4:n</title>
<path fill="none" stroke="green" d="M327.5,-246.78C327.5,-238.37 327.5,-229.11 327.5,-220.06"/>
<polygon fill="green" stroke="green" points="331,-220 327.5,-210 324,-220 331,-220"/>
</g>
<!-- node5 -->
<g id="node4" class="node">
<title>node5</title>
<polygon fill="lightcyan" stroke="transparent" points="7.5,-80 7.5,-116 244.5,-116 244.5,-80 7.5,-80"/>
<polygon fill="none" stroke="black" points="7.5,-80 7.5,-116 244.5,-116 244.5,-80 7.5,-80"/>
<text text-anchor="start" x="10.5" y="-101.8" font-family="Times,serif" font-size="14.00"> CO_tmp(I &#160;)&lt;= &#160;&#160;CO_tmp( &#160;&#160;I&#45; 1)</text>
<text text-anchor="start" x="10.5" y="-86.8" font-family="Times,serif" font-size="14.00"> wait &#160;for &#160;&#160;&#160;CO_DELAY(I &#160;) &#160;&#160;&#160;&#160;&#160;&#160;&#160;. </text>
</g>
<!-- node4&#45;&gt;node5 -->
<g id="edge3" class="edge">
<title>node4:s&#45;&gt;node5</title>
<path fill="none" stroke="red" d="M327.5,-174C327.5,-167.34 264.91,-144.85 209.4,-126.22"/>
<polygon fill="red" stroke="red" points="210.45,-122.88 199.86,-123.03 208.23,-129.52 210.45,-122.88"/>
<text text-anchor="middle" x="302" y="-144.8" font-family="Times,serif" font-size="14.00">yes</text>
</g>
<!-- node9 -->
<g id="node6" class="node">
<title>node9</title>
<path fill="none" stroke="black" d="M373.5,-116C373.5,-116 281.5,-116 281.5,-116 275.5,-116 269.5,-110 269.5,-104 269.5,-104 269.5,-92 269.5,-92 269.5,-86 275.5,-80 281.5,-80 281.5,-80 373.5,-80 373.5,-80 379.5,-80 385.5,-86 385.5,-92 385.5,-92 385.5,-104 385.5,-104 385.5,-110 379.5,-116 373.5,-116"/>
<polygon fill="white" stroke="transparent" points="277.5,-90 277.5,-105 377.5,-105 377.5,-90 277.5,-90"/>
<text text-anchor="start" x="277.5" y="-93.8" font-family="Times,serif" font-size="14.00"> end process &#160;</text>
</g>
<!-- node4&#45;&gt;node9 -->
<g id="edge4" class="edge">
<title>node4:s&#45;&gt;node9</title>
<path fill="none" stroke="black" d="M327.5,-174C327.5,-158.23 327.5,-140.59 327.5,-126.38"/>
<polygon fill="black" stroke="black" points="331,-126.28 327.5,-116.28 324,-126.28 331,-126.28"/>
<text text-anchor="middle" x="336.5" y="-144.8" font-family="Times,serif" font-size="14.00">no</text>
</g>
<!-- node7 -->
<g id="node5" class="node">
<title>node7</title>
<ellipse fill="none" stroke="black" cx="269.5" cy="-18" rx="50.09" ry="18"/>
<text text-anchor="middle" x="269.5" y="-14.3" font-family="Times,serif" font-size="14.00">end loop</text>
</g>
<!-- node5&#45;&gt;node7 -->
<g id="edge5" class="edge">
<title>node5&#45;&gt;node7</title>
<path fill="none" stroke="green" d="M169.88,-72.96C190.57,-61.75 214.84,-48.61 234.25,-38.09"/>
<polygon fill="green" stroke="green" points="235.95,-41.16 243.07,-33.32 232.61,-35 235.95,-41.16"/>
</g>
<!-- node7&#45;&gt;node4 -->
<g id="edge6" class="edge">
<title>node7&#45;&gt;node4:n</title>
<path fill="none" stroke="green" d="M314.21,-26.22C384.81,-40.34 519.85,-78.96 575.67,-174 583.78,-187.8 586.96,-198.66 575.67,-210 571.4,-214.29 382.93,-217.14 337.35,-213.08"/>
<polygon fill="green" stroke="green" points="338.01,-209.65 327.5,-211 336.56,-216.49 338.01,-209.65"/>
</g>
</g>
</svg>
