<?xml version="1.0" encoding="UTF-8" standalone="no"?>
<?xml-stylesheet href="doxygen.css" type="text/css"?>
<!DOCTYPE svg PUBLIC "-//W3C//DTD SVG 1.1//EN"
 "http://www.w3.org/Graphics/SVG/1.1/DTD/svg11.dtd">
<!-- Generated by graphviz version 2.43.0 (0)
 -->
<!-- Title: G Pages: 1 -->
<svg width="476pt" height="393pt"
 viewBox="0.00 0.00 476.35 393.00" xmlns="http://www.w3.org/2000/svg" xmlns:xlink="http://www.w3.org/1999/xlink">
<g id="graph0" class="graph" transform="scale(1 1) rotate(0) translate(4 389)">
<title>G</title>
<polygon fill="white" stroke="transparent" points="-4,4 -4,-389 472.35,-389 472.35,4 -4,4"/>
<!-- node8 -->
<g id="node1" class="node">
<title>node8</title>
<path fill="none" stroke="black" d="M308,-385C308,-385 219,-385 219,-385 213,-385 207,-379 207,-373 207,-373 207,-361 207,-361 207,-355 213,-349 219,-349 219,-349 308,-349 308,-349 314,-349 320,-355 320,-361 320,-361 320,-373 320,-373 320,-379 314,-385 308,-385"/>
<polygon fill="white" stroke="transparent" points="215.5,-359 215.5,-374 312.5,-374 312.5,-359 215.5,-359"/>
<text text-anchor="start" x="215.5" y="-362.8" font-family="Times,serif" font-size="14.00"> SimO:process( ) </text>
</g>
<!-- node1 -->
<g id="node2" class="node">
<title>node1</title>
<polygon fill="lightcyan" stroke="transparent" points="171.5,-253.5 171.5,-304.5 355.5,-304.5 355.5,-253.5 171.5,-253.5"/>
<polygon fill="none" stroke="black" points="171.5,-253.5 171.5,-304.5 355.5,-304.5 355.5,-253.5 171.5,-253.5"/>
<text text-anchor="start" x="174.5" y="-290.3" font-family="Times,serif" font-size="14.00"> &#160;wait &#160;on AsyncInput</text>
<text text-anchor="start" x="174.5" y="-275.3" font-family="Times,serif" font-size="14.00">O_tmp( 0)&lt;=not &#160;&#160;&#160;AsyncInput</text>
<text text-anchor="start" x="174.5" y="-260.3" font-family="Times,serif" font-size="14.00"> wait &#160;for &#160;&#160;&#160;O_DELAY( 0) &#160;&#160;&#160;&#160;&#160;. </text>
</g>
<!-- node8&#45;&gt;node1 -->
<g id="edge1" class="edge">
<title>node8&#45;&gt;node1</title>
<path fill="none" stroke="green" d="M263.5,-348.7C263.5,-341.03 263.5,-331.64 263.5,-322.32"/>
<polygon fill="green" stroke="green" points="267,-322.3 263.5,-312.3 260,-322.3 267,-322.3"/>
</g>
<!-- node4 -->
<g id="node3" class="node">
<title>node4</title>
<polygon fill="#c1b2ff" stroke="#c1b2ff" points="263.5,-210 65.76,-192 263.5,-174 461.24,-192 263.5,-210"/>
<text text-anchor="middle" x="263.5" y="-188.3" font-family="Times,serif" font-size="14.00"> &#160;for I in &#160;1 to &#160;&#160;&#160;O&#39;LENGTH&#45; 1 loop</text>
</g>
<!-- node1&#45;&gt;node4 -->
<g id="edge2" class="edge">
<title>node1&#45;&gt;node4:n</title>
<path fill="none" stroke="green" d="M263.5,-246.78C263.5,-238.37 263.5,-229.11 263.5,-220.06"/>
<polygon fill="green" stroke="green" points="267,-220 263.5,-210 260,-220 267,-220"/>
</g>
<!-- node5 -->
<g id="node4" class="node">
<title>node5</title>
<polygon fill="lightcyan" stroke="transparent" points="7.5,-80 7.5,-116 192.5,-116 192.5,-80 7.5,-80"/>
<polygon fill="none" stroke="black" points="7.5,-80 7.5,-116 192.5,-116 192.5,-80 7.5,-80"/>
<text text-anchor="start" x="10.5" y="-101.8" font-family="Times,serif" font-size="14.00"> O_tmp(I &#160;)&lt;= &#160;&#160;O_tmp( &#160;&#160;I&#45; 1)</text>
<text text-anchor="start" x="10.5" y="-86.8" font-family="Times,serif" font-size="14.00"> wait &#160;for &#160;&#160;&#160;O_DELAY(I &#160;) &#160;&#160;&#160;&#160;&#160;. </text>
</g>
<!-- node4&#45;&gt;node5 -->
<g id="edge3" class="edge">
<title>node4:s&#45;&gt;node5</title>
<path fill="none" stroke="red" d="M263.5,-174C263.5,-168.45 213.11,-146 168.19,-127.1"/>
<polygon fill="red" stroke="red" points="169.28,-123.77 158.71,-123.13 166.58,-130.22 169.28,-123.77"/>
<text text-anchor="middle" x="242" y="-144.8" font-family="Times,serif" font-size="14.00">yes</text>
</g>
<!-- node9 -->
<g id="node6" class="node">
<title>node9</title>
<path fill="none" stroke="black" d="M297.5,-116C297.5,-116 229.5,-116 229.5,-116 223.5,-116 217.5,-110 217.5,-104 217.5,-104 217.5,-92 217.5,-92 217.5,-86 223.5,-80 229.5,-80 229.5,-80 297.5,-80 297.5,-80 303.5,-80 309.5,-86 309.5,-92 309.5,-92 309.5,-104 309.5,-104 309.5,-110 303.5,-116 297.5,-116"/>
<polygon fill="white" stroke="transparent" points="225.5,-90 225.5,-105 301.5,-105 301.5,-90 225.5,-90"/>
<text text-anchor="start" x="225.5" y="-93.8" font-family="Times,serif" font-size="14.00"> end process &#160;</text>
</g>
<!-- node4&#45;&gt;node9 -->
<g id="edge4" class="edge">
<title>node4:s&#45;&gt;node9</title>
<path fill="none" stroke="black" d="M263.5,-174C263.5,-158.23 263.5,-140.59 263.5,-126.38"/>
<polygon fill="black" stroke="black" points="267,-126.28 263.5,-116.28 260,-126.28 267,-126.28"/>
<text text-anchor="middle" x="270.5" y="-144.8" font-family="Times,serif" font-size="14.00">no</text>
</g>
<!-- node7 -->
<g id="node5" class="node">
<title>node7</title>
<ellipse fill="none" stroke="black" cx="218.5" cy="-18" rx="41.69" ry="18"/>
<text text-anchor="middle" x="218.5" y="-14.3" font-family="Times,serif" font-size="14.00">end loop</text>
</g>
<!-- node5&#45;&gt;node7 -->
<g id="edge5" class="edge">
<title>node5&#45;&gt;node7</title>
<path fill="none" stroke="green" d="M136.17,-72.96C152.62,-62.18 171.8,-49.61 187.51,-39.31"/>
<polygon fill="green" stroke="green" points="189.86,-41.95 196.31,-33.55 186.03,-36.1 189.86,-41.95"/>
</g>
<!-- node7&#45;&gt;node4 -->
<g id="edge6" class="edge">
<title>node7&#45;&gt;node4:n</title>
<path fill="none" stroke="green" d="M252.52,-28.62C308.51,-46.54 418.18,-90.98 461.12,-174 468.47,-188.21 472.4,-198.66 461.12,-210 454.42,-216.73 311.37,-220.78 272.93,-214.64"/>
<polygon fill="green" stroke="green" points="274.09,-211.33 263.5,-211 271.57,-217.87 274.09,-211.33"/>
</g>
</g>
</svg>
