<?xml version="1.0" encoding="UTF-8" standalone="no"?>
<?xml-stylesheet href="doxygen.css" type="text/css"?>
<!DOCTYPE svg PUBLIC "-//W3C//DTD SVG 1.1//EN"
 "http://www.w3.org/Graphics/SVG/1.1/DTD/svg11.dtd">
<!-- Generated by graphviz version 2.43.0 (0)
 -->
<!-- Title: G Pages: 1 -->
<svg width="562pt" height="393pt"
 viewBox="0.00 0.00 561.90 393.00" xmlns="http://www.w3.org/2000/svg" xmlns:xlink="http://www.w3.org/1999/xlink">
<g id="graph0" class="graph" transform="scale(1 1) rotate(0) translate(4 389)">
<title>G</title>
<polygon fill="white" stroke="transparent" points="-4,4 -4,-389 557.9,-389 557.9,4 -4,4"/>
<!-- node8 -->
<g id="node1" class="node">
<title>node8</title>
<path fill="none" stroke="black" d="M365,-385C365,-385 250,-385 250,-385 244,-385 238,-379 238,-373 238,-373 238,-361 238,-361 238,-355 244,-349 250,-349 250,-349 365,-349 365,-349 371,-349 377,-355 377,-361 377,-361 377,-373 377,-373 377,-379 371,-385 365,-385"/>
<polygon fill="white" stroke="transparent" points="246.5,-359 246.5,-374 369.5,-374 369.5,-359 246.5,-359"/>
<text text-anchor="start" x="246.5" y="-362.8" font-family="Times,serif" font-size="14.00"> SimO:process( ) </text>
</g>
<!-- node1 -->
<g id="node2" class="node">
<title>node1</title>
<polygon fill="lightcyan" stroke="transparent" points="196.5,-253.5 196.5,-304.5 419.5,-304.5 419.5,-253.5 196.5,-253.5"/>
<polygon fill="none" stroke="black" points="196.5,-253.5 196.5,-304.5 419.5,-304.5 419.5,-253.5 196.5,-253.5"/>
<text text-anchor="start" x="199.5" y="-290.3" font-family="Times,serif" font-size="14.00"> &#160;wait &#160;on AsyncInput</text>
<text text-anchor="start" x="199.5" y="-275.3" font-family="Times,serif" font-size="14.00">O_tmp( 0)&lt;=not &#160;&#160;&#160;AsyncInput</text>
<text text-anchor="start" x="202.5" y="-260.3" font-family="Times,serif" font-size="14.00"> wait &#160;for &#160;&#160;&#160;O_DELAY( 0) &#160;&#160;&#160;&#160;&#160;. </text>
</g>
<!-- node8&#45;&gt;node1 -->
<g id="edge1" class="edge">
<title>node8&#45;&gt;node1</title>
<path fill="none" stroke="green" d="M307.5,-348.7C307.5,-341.03 307.5,-331.64 307.5,-322.32"/>
<polygon fill="green" stroke="green" points="311,-322.3 307.5,-312.3 304,-322.3 311,-322.3"/>
</g>
<!-- node4 -->
<g id="node3" class="node">
<title>node4</title>
<polygon fill="#c1b2ff" stroke="#c1b2ff" points="307.5,-210 68.54,-192 307.5,-174 546.46,-192 307.5,-210"/>
<text text-anchor="middle" x="307.5" y="-188.3" font-family="Times,serif" font-size="14.00"> &#160;for I in &#160;1 to &#160;&#160;&#160;O&#39;LENGTH&#45; 1 loop</text>
</g>
<!-- node1&#45;&gt;node4 -->
<g id="edge2" class="edge">
<title>node1&#45;&gt;node4:n</title>
<path fill="none" stroke="green" d="M307.5,-246.78C307.5,-238.37 307.5,-229.11 307.5,-220.06"/>
<polygon fill="green" stroke="green" points="311,-220 307.5,-210 304,-220 311,-220"/>
</g>
<!-- node5 -->
<g id="node4" class="node">
<title>node5</title>
<polygon fill="lightcyan" stroke="transparent" points="7.5,-80 7.5,-116 224.5,-116 224.5,-80 7.5,-80"/>
<polygon fill="none" stroke="black" points="7.5,-80 7.5,-116 224.5,-116 224.5,-80 7.5,-80"/>
<text text-anchor="start" x="10.5" y="-101.8" font-family="Times,serif" font-size="14.00"> O_tmp(I &#160;)&lt;= &#160;&#160;O_tmp( &#160;&#160;I&#45; 1)</text>
<text text-anchor="start" x="10.5" y="-86.8" font-family="Times,serif" font-size="14.00"> wait &#160;for &#160;&#160;&#160;O_DELAY(I &#160;) &#160;&#160;&#160;&#160;&#160;. </text>
</g>
<!-- node4&#45;&gt;node5 -->
<g id="edge3" class="edge">
<title>node4:s&#45;&gt;node5</title>
<path fill="none" stroke="red" d="M307.5,-174C307.5,-167.64 248.3,-145.22 195.64,-126.53"/>
<polygon fill="red" stroke="red" points="196.5,-123.12 185.9,-123.09 194.17,-129.72 196.5,-123.12"/>
<text text-anchor="middle" x="284" y="-144.8" font-family="Times,serif" font-size="14.00">yes</text>
</g>
<!-- node9 -->
<g id="node6" class="node">
<title>node9</title>
<path fill="none" stroke="black" d="M353.5,-116C353.5,-116 261.5,-116 261.5,-116 255.5,-116 249.5,-110 249.5,-104 249.5,-104 249.5,-92 249.5,-92 249.5,-86 255.5,-80 261.5,-80 261.5,-80 353.5,-80 353.5,-80 359.5,-80 365.5,-86 365.5,-92 365.5,-92 365.5,-104 365.5,-104 365.5,-110 359.5,-116 353.5,-116"/>
<polygon fill="white" stroke="transparent" points="257.5,-90 257.5,-105 357.5,-105 357.5,-90 257.5,-90"/>
<text text-anchor="start" x="257.5" y="-93.8" font-family="Times,serif" font-size="14.00"> end process &#160;</text>
</g>
<!-- node4&#45;&gt;node9 -->
<g id="edge4" class="edge">
<title>node4:s&#45;&gt;node9</title>
<path fill="none" stroke="black" d="M307.5,-174C307.5,-158.23 307.5,-140.59 307.5,-126.38"/>
<polygon fill="black" stroke="black" points="311,-126.28 307.5,-116.28 304,-126.28 311,-126.28"/>
<text text-anchor="middle" x="316.5" y="-144.8" font-family="Times,serif" font-size="14.00">no</text>
</g>
<!-- node7 -->
<g id="node5" class="node">
<title>node7</title>
<ellipse fill="none" stroke="black" cx="254.5" cy="-18" rx="50.09" ry="18"/>
<text text-anchor="middle" x="254.5" y="-14.3" font-family="Times,serif" font-size="14.00">end loop</text>
</g>
<!-- node5&#45;&gt;node7 -->
<g id="edge5" class="edge">
<title>node5&#45;&gt;node7</title>
<path fill="none" stroke="green" d="M158.34,-72.96C178.08,-61.88 201.21,-48.91 219.83,-38.45"/>
<polygon fill="green" stroke="green" points="221.57,-41.49 228.58,-33.55 218.15,-35.39 221.57,-41.49"/>
</g>
<!-- node7&#45;&gt;node4 -->
<g id="edge6" class="edge">
<title>node7&#45;&gt;node4:n</title>
<path fill="none" stroke="green" d="M298.07,-27.08C365.79,-42.27 493.95,-82.23 546.48,-174 554.43,-187.89 557.77,-198.66 546.48,-210 542.38,-214.12 362.49,-216.88 317.58,-213.06"/>
<polygon fill="green" stroke="green" points="318,-209.57 307.5,-211 316.6,-216.43 318,-209.57"/>
</g>
</g>
</svg>
