<?xml version="1.0" encoding="UTF-8" standalone="no"?>
<?xml-stylesheet href="doxygen.css" type="text/css"?>
<!DOCTYPE svg PUBLIC "-//W3C//DTD SVG 1.1//EN"
 "http://www.w3.org/Graphics/SVG/1.1/DTD/svg11.dtd">
<!-- Generated by graphviz version 2.43.0 (0)
 -->
<!-- Title: G Pages: 1 -->
<svg width="1406pt" height="886pt"
 viewBox="0.00 0.00 1406.48 886.00" xmlns="http://www.w3.org/2000/svg" xmlns:xlink="http://www.w3.org/1999/xlink">
<g id="graph0" class="graph" transform="scale(1 1) rotate(0) translate(4 882)">
<title>G</title>
<polygon fill="white" stroke="transparent" points="-4,4 -4,-882 1402.48,-882 1402.48,4 -4,4"/>
<!-- node15 -->
<g id="node1" class="node">
<title>node15</title>
<path fill="none" stroke="black" d="M677.5,-878C677.5,-878 18.5,-878 18.5,-878 12.5,-878 6.5,-872 6.5,-866 6.5,-866 6.5,-854 6.5,-854 6.5,-848 12.5,-842 18.5,-842 18.5,-842 677.5,-842 677.5,-842 683.5,-842 689.5,-848 689.5,-854 689.5,-854 689.5,-866 689.5,-866 689.5,-872 683.5,-878 677.5,-878"/>
<polygon fill="white" stroke="transparent" points="15,-852 15,-867 682,-867 682,-852 15,-852"/>
<text text-anchor="start" x="15" y="-855.8" font-family="Times,serif" font-size="14.00"> ValidTDL:process( reset,clk,Valid_SampledTaps,Valid_SampledTaps_pipe,RiseValid,FallValid) </text>
</g>
<!-- node1 -->
<g id="node2" class="node">
<title>node1</title>
<polygon fill="lightcyan" stroke="transparent" points="7,-776 7,-797 689,-797 689,-776 7,-776"/>
<polygon fill="none" stroke="black" points="7,-776 7,-797 689,-797 689,-776 7,-776"/>
<text text-anchor="start" x="10" y="-782.8" font-family="Times,serif" font-size="14.00"> Valid_SampledTaps&lt;= &#160;&#160;Compute_ValidSampledTapsTDL( &#160;&#160;TYPE_TDL, &#160;&#160;RiseValid, &#160;&#160;FallValid) </text>
</g>
<!-- node15&#45;&gt;node1 -->
<g id="edge1" class="edge">
<title>node15&#45;&gt;node1</title>
<path fill="none" stroke="green" d="M348,-841.81C348,-833.79 348,-824.05 348,-815.07"/>
<polygon fill="green" stroke="green" points="351.5,-815.03 348,-805.03 344.5,-815.03 351.5,-815.03"/>
</g>
<!-- node2 -->
<g id="node3" class="node">
<title>node2</title>
<polygon fill="#c1b2ff" stroke="#c1b2ff" points="348,-732 205.56,-714 348,-696 490.44,-714 348,-732"/>
<text text-anchor="middle" x="348" y="-710.3" font-family="Times,serif" font-size="14.00"> if &#160;&#160;&#160;reset= &#39;1&#39; then</text>
</g>
<!-- node1&#45;&gt;node2 -->
<g id="edge2" class="edge">
<title>node1&#45;&gt;node2:n</title>
<path fill="none" stroke="green" d="M348,-768.98C348,-761.17 348,-751.56 348,-742.11"/>
<polygon fill="green" stroke="green" points="351.5,-742 348,-732 344.5,-742 351.5,-742"/>
</g>
<!-- node3 -->
<g id="node4" class="node">
<title>node3</title>
<polygon fill="lightcyan" stroke="transparent" points="173,-562 173,-583 407,-583 407,-562 173,-562"/>
<polygon fill="none" stroke="black" points="173,-562 173,-583 407,-583 407,-562 173,-562"/>
<text text-anchor="start" x="176" y="-568.8" font-family="Times,serif" font-size="14.00"> Valid_SampledTaps_TDL&lt;= &#39;0&#39; </text>
</g>
<!-- node2&#45;&gt;node3 -->
<g id="edge3" class="edge">
<title>node2:s&#45;&gt;node3</title>
<path fill="none" stroke="red" d="M348,-696C348,-685.3 337.64,-687.1 332,-678 316.76,-653.43 305.07,-622.37 297.94,-600.62"/>
<polygon fill="red" stroke="red" points="301.26,-599.52 294.9,-591.05 294.59,-601.64 301.26,-599.52"/>
<text text-anchor="middle" x="344.5" y="-666.8" font-family="Times,serif" font-size="14.00">yes</text>
</g>
<!-- node4 -->
<g id="node5" class="node">
<title>node4</title>
<polygon fill="#c1b2ff" stroke="#c1b2ff" points="579,-645 369.36,-627 579,-609 788.64,-627 579,-645"/>
<text text-anchor="middle" x="579" y="-623.3" font-family="Times,serif" font-size="14.00"> elsif &#160;&#160;&#160;rising_edge(clk &#160;) then</text>
</g>
<!-- node2&#45;&gt;node4 -->
<g id="edge4" class="edge">
<title>node2:s&#45;&gt;node4</title>
<path fill="none" stroke="black" d="M348,-696C348,-666.54 418.04,-648.9 480.98,-639"/>
<polygon fill="black" stroke="black" points="481.65,-642.44 491.01,-637.48 480.6,-635.52 481.65,-642.44"/>
<text text-anchor="middle" x="391" y="-666.8" font-family="Times,serif" font-size="14.00">no</text>
</g>
<!-- node10 -->
<g id="node9" class="node">
<title>node10</title>
<polygon fill="#c1b2ff" stroke="#c1b2ff" points="792,-304 514.33,-286 792,-268 1069.67,-286 792,-304"/>
<text text-anchor="middle" x="792" y="-282.3" font-family="Times,serif" font-size="14.00"> if &#160;&#160;&#160;BUFFERING_STAGE= &#160;&#160;TRUE then</text>
</g>
<!-- node3&#45;&gt;node10 -->
<g id="edge5" class="edge">
<title>node3&#45;&gt;node10:n</title>
<path fill="none" stroke="green" d="M286.52,-554.87C281.7,-527.13 275.31,-471.14 292,-428 310.63,-379.84 322.38,-363.2 369,-341 411.47,-320.78 762.65,-359.77 792,-323"/>
<path fill="none" stroke="green" d="M792,-322C794.3,-319.11 794.48,-316.76 794,-314.28"/>
<polygon fill="green" stroke="green" points="797.41,-313.48 792,-304.37 790.55,-314.87 797.41,-313.48"/>
</g>
<!-- node5 -->
<g id="node6" class="node">
<title>node5</title>
<polygon fill="lightcyan" stroke="transparent" points="489,-508 489,-529 669,-529 669,-508 489,-508"/>
<polygon fill="none" stroke="black" points="489,-508 489,-529 669,-529 669,-508 489,-508"/>
<text text-anchor="start" x="492" y="-514.8" font-family="Times,serif" font-size="14.00"> FallValid&lt;= &#160;&#160;RiseValid </text>
</g>
<!-- node4&#45;&gt;node5 -->
<g id="edge6" class="edge">
<title>node4&#45;&gt;node5</title>
<path fill="none" stroke="red" d="M579,-608.97C579,-592.38 579,-566.88 579,-547.43"/>
<polygon fill="red" stroke="red" points="582.5,-547.34 579,-537.34 575.5,-547.34 582.5,-547.34"/>
<text text-anchor="middle" x="591.5" y="-569.3" font-family="Times,serif" font-size="14.00">yes</text>
</g>
<!-- node4&#45;&gt;node10 -->
<g id="edge7" class="edge">
<title>node4&#45;&gt;node10:n</title>
<path fill="none" stroke="black" d="M632.14,-613.5C700.27,-594.3 815.59,-550.35 866,-464 874.07,-450.18 870.83,-443.25 866,-428 865.73,-427.15 791.44,-323.7 792,-323"/>
<text text-anchor="middle" x="879" y="-442.3" font-family="Times,serif" font-size="14.00">no</text>
</g>
<!-- node6 -->
<g id="node7" class="node">
<title>node6</title>
<polygon fill="#c1b2ff" stroke="#c1b2ff" points="579,-464 301.33,-446 579,-428 856.67,-446 579,-464"/>
<text text-anchor="middle" x="579" y="-442.3" font-family="Times,serif" font-size="14.00"> if &#160;&#160;&#160;BUFFERING_STAGE= &#160;&#160;TRUE then</text>
</g>
<!-- node5&#45;&gt;node6 -->
<g id="edge8" class="edge">
<title>node5&#45;&gt;node6:n</title>
<path fill="none" stroke="green" d="M579,-500.98C579,-493.17 579,-483.56 579,-474.11"/>
<polygon fill="green" stroke="green" points="582.5,-474 579,-464 575.5,-474 582.5,-474"/>
</g>
<!-- node7 -->
<g id="node8" class="node">
<title>node7</title>
<polygon fill="lightcyan" stroke="transparent" points="385,-348 385,-369 750,-369 750,-348 385,-348"/>
<polygon fill="none" stroke="black" points="385,-348 385,-369 750,-369 750,-348 385,-348"/>
<text text-anchor="start" x="388" y="-354.8" font-family="Times,serif" font-size="14.00"> Valid_SampledTaps_pipe&lt;= &#160;&#160;Valid_SampledTaps </text>
</g>
<!-- node6&#45;&gt;node7 -->
<g id="edge9" class="edge">
<title>node6:s&#45;&gt;node7</title>
<path fill="none" stroke="red" d="M579,-428C579,-414.46 576.67,-399.64 574.06,-387.29"/>
<polygon fill="red" stroke="red" points="577.38,-386.15 571.74,-377.18 570.56,-387.71 577.38,-386.15"/>
<text text-anchor="middle" x="589.5" y="-398.8" font-family="Times,serif" font-size="14.00">yes</text>
</g>
<!-- node6&#45;&gt;node10 -->
<g id="edge10" class="edge">
<title>node6:s&#45;&gt;node10:n</title>
<path fill="none" stroke="black" d="M579,-428C579,-406.46 749.45,-390.78 766,-377 786.47,-359.96 775.42,-343.85 792,-323"/>
<text text-anchor="middle" x="791" y="-355.3" font-family="Times,serif" font-size="14.00">no</text>
</g>
<!-- node7&#45;&gt;node10 -->
<g id="edge11" class="edge">
<title>node7&#45;&gt;node10:n</title>
<path fill="none" stroke="green" d="M756.7,-341.79C773.02,-337.02 785.73,-330.89 792,-323"/>
</g>
<!-- node11 -->
<g id="node10" class="node">
<title>node11</title>
<polygon fill="lightcyan" stroke="transparent" points="568,-134 568,-155 969,-155 969,-134 568,-134"/>
<polygon fill="none" stroke="black" points="568,-134 568,-155 969,-155 969,-134 568,-134"/>
<text text-anchor="start" x="571" y="-140.8" font-family="Times,serif" font-size="14.00"> Valid_SampledTaps_TDL&lt;= &#160;&#160;Valid_SampledTaps_pipe </text>
</g>
<!-- node10&#45;&gt;node11 -->
<g id="edge12" class="edge">
<title>node10:s&#45;&gt;node11</title>
<path fill="none" stroke="red" d="M792,-268C792,-255.71 776.3,-261.09 771,-250 759.49,-225.91 760.28,-194.96 762.99,-173.11"/>
<polygon fill="red" stroke="red" points="766.46,-173.59 764.43,-163.19 759.53,-172.58 766.46,-173.59"/>
<text text-anchor="middle" x="783.5" y="-238.8" font-family="Times,serif" font-size="14.00">yes</text>
</g>
<!-- node12 -->
<g id="node11" class="node">
<title>node12</title>
<polygon fill="#c1b2ff" stroke="#c1b2ff" points="1097,-217 795.53,-199 1097,-181 1398.47,-199 1097,-217"/>
<text text-anchor="middle" x="1097" y="-195.3" font-family="Times,serif" font-size="14.00"> elsif &#160;&#160;&#160;BUFFERING_STAGE= &#160;&#160;FALSE then</text>
</g>
<!-- node10&#45;&gt;node12 -->
<g id="edge13" class="edge">
<title>node10:s&#45;&gt;node12</title>
<path fill="none" stroke="black" d="M792,-268C792,-234.84 861.55,-217.84 934.23,-209.13"/>
<polygon fill="black" stroke="black" points="934.96,-212.57 944.5,-207.96 934.17,-205.62 934.96,-212.57"/>
<text text-anchor="middle" x="827" y="-238.8" font-family="Times,serif" font-size="14.00">no</text>
</g>
<!-- node16 -->
<g id="node13" class="node">
<title>node16</title>
<path fill="none" stroke="black" d="M1031,-36C1031,-36 939,-36 939,-36 933,-36 927,-30 927,-24 927,-24 927,-12 927,-12 927,-6 933,0 939,0 939,0 1031,0 1031,0 1037,0 1043,-6 1043,-12 1043,-12 1043,-24 1043,-24 1043,-30 1037,-36 1031,-36"/>
<polygon fill="white" stroke="transparent" points="935,-10 935,-25 1035,-25 1035,-10 935,-10"/>
<text text-anchor="start" x="935" y="-13.8" font-family="Times,serif" font-size="14.00"> end process &#160;</text>
</g>
<!-- node11&#45;&gt;node16 -->
<g id="edge14" class="edge">
<title>node11&#45;&gt;node16</title>
<path fill="none" stroke="green" d="M767.43,-126.77C767.91,-110.29 771.48,-86.07 787,-73 803.9,-58.77 985.81,-77.08 985,-55"/>
<path fill="none" stroke="green" d="M985,-54C984.79,-51.46 984.65,-48.81 984.56,-46.15"/>
<polygon fill="green" stroke="green" points="988.06,-46.07 984.44,-36.11 981.06,-46.15 988.06,-46.07"/>
</g>
<!-- node13 -->
<g id="node12" class="node">
<title>node13</title>
<polygon fill="lightcyan" stroke="transparent" points="803,-80 803,-101 1167,-101 1167,-80 803,-80"/>
<polygon fill="none" stroke="black" points="803,-80 803,-101 1167,-101 1167,-80 803,-80"/>
<text text-anchor="start" x="806" y="-86.8" font-family="Times,serif" font-size="14.00"> Valid_SampledTaps_TDL&lt;= &#160;&#160;Valid_SampledTaps </text>
</g>
<!-- node12&#45;&gt;node13 -->
<g id="edge15" class="edge">
<title>node12&#45;&gt;node13</title>
<path fill="none" stroke="red" d="M1079.99,-181.9C1061.57,-164.47 1031.97,-136.46 1010.71,-116.33"/>
<polygon fill="red" stroke="red" points="1012.96,-113.64 1003.29,-109.31 1008.15,-118.73 1012.96,-113.64"/>
<text text-anchor="middle" x="1069.5" y="-141.3" font-family="Times,serif" font-size="14.00">yes</text>
</g>
<!-- node12&#45;&gt;node16 -->
<g id="edge16" class="edge">
<title>node12&#45;&gt;node16</title>
<path fill="none" stroke="black" d="M1121.34,-182.39C1156.96,-157.71 1215.68,-108.79 1183,-73 1153.21,-40.38 988.6,-99.03 985,-55"/>
<text text-anchor="middle" x="1201" y="-87.3" font-family="Times,serif" font-size="14.00">no</text>
</g>
<!-- node13&#45;&gt;node16 -->
<g id="edge17" class="edge">
<title>node13&#45;&gt;node16</title>
<path fill="none" stroke="green" d="M985.25,-72.91C985.27,-67.21 985.21,-60.83 985,-55"/>
</g>
</g>
</svg>
