<?xml version="1.0" encoding="UTF-8" standalone="no"?>
<?xml-stylesheet href="doxygen.css" type="text/css"?>
<!DOCTYPE svg PUBLIC "-//W3C//DTD SVG 1.1//EN"
 "http://www.w3.org/Graphics/SVG/1.1/DTD/svg11.dtd">
<!-- Generated by graphviz version 2.43.0 (0)
 -->
<!-- Title: G Pages: 1 -->
<svg width="1168pt" height="886pt"
 viewBox="0.00 0.00 1167.51 886.00" xmlns="http://www.w3.org/2000/svg" xmlns:xlink="http://www.w3.org/1999/xlink">
<g id="graph0" class="graph" transform="scale(1 1) rotate(0) translate(4 882)">
<title>G</title>
<polygon fill="white" stroke="transparent" points="-4,4 -4,-882 1163.51,-882 1163.51,4 -4,4"/>
<!-- node15 -->
<g id="node1" class="node">
<title>node15</title>
<path fill="none" stroke="black" d="M546,-878C546,-878 23,-878 23,-878 17,-878 11,-872 11,-866 11,-866 11,-854 11,-854 11,-848 17,-842 23,-842 23,-842 546,-842 546,-842 552,-842 558,-848 558,-854 558,-854 558,-866 558,-866 558,-872 552,-878 546,-878"/>
<polygon fill="white" stroke="transparent" points="19.5,-852 19.5,-867 550.5,-867 550.5,-852 19.5,-852"/>
<text text-anchor="start" x="19.5" y="-855.8" font-family="Times,serif" font-size="14.00"> ValidTDL:process( reset,clk,Valid_SampledTaps,Valid_SampledTaps_pipe,RiseValid,FallValid) </text>
</g>
<!-- node1 -->
<g id="node2" class="node">
<title>node1</title>
<polygon fill="lightcyan" stroke="transparent" points="7.5,-776 7.5,-797 562.5,-797 562.5,-776 7.5,-776"/>
<polygon fill="none" stroke="black" points="7.5,-776 7.5,-797 562.5,-797 562.5,-776 7.5,-776"/>
<text text-anchor="start" x="10.5" y="-782.8" font-family="Times,serif" font-size="14.00"> Valid_SampledTaps&lt;= &#160;&#160;Compute_ValidSampledTapsTDL( &#160;&#160;TYPE_TDL, &#160;&#160;RiseValid, &#160;&#160;FallValid) </text>
</g>
<!-- node15&#45;&gt;node1 -->
<g id="edge1" class="edge">
<title>node15&#45;&gt;node1</title>
<path fill="none" stroke="green" d="M284.5,-841.81C284.5,-833.79 284.5,-824.05 284.5,-815.07"/>
<polygon fill="green" stroke="green" points="288,-815.03 284.5,-805.03 281,-815.03 288,-815.03"/>
</g>
<!-- node2 -->
<g id="node3" class="node">
<title>node2</title>
<polygon fill="#c1b2ff" stroke="#c1b2ff" points="284.5,-732 175.24,-714 284.5,-696 393.76,-714 284.5,-732"/>
<text text-anchor="middle" x="284.5" y="-710.3" font-family="Times,serif" font-size="14.00"> if &#160;&#160;&#160;reset= &#39;1&#39; then</text>
</g>
<!-- node1&#45;&gt;node2 -->
<g id="edge2" class="edge">
<title>node1&#45;&gt;node2:n</title>
<path fill="none" stroke="green" d="M284.5,-768.98C284.5,-761.17 284.5,-751.56 284.5,-742.11"/>
<polygon fill="green" stroke="green" points="288,-742 284.5,-732 281,-742 288,-742"/>
</g>
<!-- node3 -->
<g id="node4" class="node">
<title>node3</title>
<polygon fill="lightcyan" stroke="transparent" points="139.5,-562 139.5,-583 326.5,-583 326.5,-562 139.5,-562"/>
<polygon fill="none" stroke="black" points="139.5,-562 139.5,-583 326.5,-583 326.5,-562 139.5,-562"/>
<text text-anchor="start" x="142.5" y="-568.8" font-family="Times,serif" font-size="14.00"> Valid_SampledTaps_TDL&lt;= &#39;0&#39; </text>
</g>
<!-- node2&#45;&gt;node3 -->
<g id="edge3" class="edge">
<title>node2:s&#45;&gt;node3</title>
<path fill="none" stroke="red" d="M284.5,-696C284.5,-687.06 279.21,-686.14 275.5,-678 263.6,-651.91 251.21,-621.56 242.81,-600.4"/>
<polygon fill="red" stroke="red" points="246.06,-599.11 239.13,-591.09 239.55,-601.68 246.06,-599.11"/>
<text text-anchor="middle" x="285" y="-666.8" font-family="Times,serif" font-size="14.00">yes</text>
</g>
<!-- node4 -->
<g id="node5" class="node">
<title>node4</title>
<polygon fill="#c1b2ff" stroke="#c1b2ff" points="474.5,-645 307.43,-627 474.5,-609 641.57,-627 474.5,-645"/>
<text text-anchor="middle" x="474.5" y="-623.3" font-family="Times,serif" font-size="14.00"> elsif &#160;&#160;&#160;rising_edge(clk &#160;) then</text>
</g>
<!-- node2&#45;&gt;node4 -->
<g id="edge4" class="edge">
<title>node2:s&#45;&gt;node4</title>
<path fill="none" stroke="black" d="M284.5,-696C284.5,-670.07 348.03,-651.39 401.62,-640.25"/>
<polygon fill="black" stroke="black" points="402.39,-643.66 411.5,-638.25 401,-636.8 402.39,-643.66"/>
<text text-anchor="middle" x="328.5" y="-666.8" font-family="Times,serif" font-size="14.00">no</text>
</g>
<!-- node10 -->
<g id="node9" class="node">
<title>node10</title>
<polygon fill="#c1b2ff" stroke="#c1b2ff" points="652.5,-304 422.92,-286 652.5,-268 882.08,-286 652.5,-304"/>
<text text-anchor="middle" x="652.5" y="-282.3" font-family="Times,serif" font-size="14.00"> if &#160;&#160;&#160;BUFFERING_STAGE= &#160;&#160;TRUE then</text>
</g>
<!-- node3&#45;&gt;node10 -->
<g id="edge5" class="edge">
<title>node3&#45;&gt;node10:n</title>
<path fill="none" stroke="green" d="M229.48,-554.97C225.32,-527.37 219.98,-471.58 235.5,-428 251.96,-381.77 259.96,-363.64 303.5,-341 337.95,-323.09 628.94,-353.87 652.5,-323"/>
<path fill="none" stroke="green" d="M652.5,-322C654.73,-319.06 654.91,-316.71 654.44,-314.23"/>
<polygon fill="green" stroke="green" points="657.87,-313.51 652.5,-304.37 651,-314.86 657.87,-313.51"/>
</g>
<!-- node5 -->
<g id="node6" class="node">
<title>node5</title>
<polygon fill="lightcyan" stroke="transparent" points="402.5,-508 402.5,-529 546.5,-529 546.5,-508 402.5,-508"/>
<polygon fill="none" stroke="black" points="402.5,-508 402.5,-529 546.5,-529 546.5,-508 402.5,-508"/>
<text text-anchor="start" x="405.5" y="-514.8" font-family="Times,serif" font-size="14.00"> FallValid&lt;= &#160;&#160;RiseValid </text>
</g>
<!-- node4&#45;&gt;node5 -->
<g id="edge6" class="edge">
<title>node4&#45;&gt;node5</title>
<path fill="none" stroke="red" d="M474.5,-608.97C474.5,-592.38 474.5,-566.88 474.5,-547.43"/>
<polygon fill="red" stroke="red" points="478,-547.34 474.5,-537.34 471,-547.34 478,-547.34"/>
<text text-anchor="middle" x="484" y="-569.3" font-family="Times,serif" font-size="14.00">yes</text>
</g>
<!-- node4&#45;&gt;node10 -->
<g id="edge7" class="edge">
<title>node4&#45;&gt;node10:n</title>
<path fill="none" stroke="black" d="M513.08,-613.07C569.12,-591.95 671,-544.16 713.5,-464 721,-449.86 717.66,-443.45 713.5,-428 712.62,-424.74 650.46,-325.68 652.5,-323"/>
<text text-anchor="middle" x="724.5" y="-442.3" font-family="Times,serif" font-size="14.00">no</text>
</g>
<!-- node6 -->
<g id="node7" class="node">
<title>node6</title>
<polygon fill="#c1b2ff" stroke="#c1b2ff" points="474.5,-464 244.92,-446 474.5,-428 704.08,-446 474.5,-464"/>
<text text-anchor="middle" x="474.5" y="-442.3" font-family="Times,serif" font-size="14.00"> if &#160;&#160;&#160;BUFFERING_STAGE= &#160;&#160;TRUE then</text>
</g>
<!-- node5&#45;&gt;node6 -->
<g id="edge8" class="edge">
<title>node5&#45;&gt;node6:n</title>
<path fill="none" stroke="green" d="M474.5,-500.98C474.5,-493.17 474.5,-483.56 474.5,-474.11"/>
<polygon fill="green" stroke="green" points="478,-474 474.5,-464 471,-474 478,-474"/>
</g>
<!-- node7 -->
<g id="node8" class="node">
<title>node7</title>
<polygon fill="lightcyan" stroke="transparent" points="320.5,-348 320.5,-369 609.5,-369 609.5,-348 320.5,-348"/>
<polygon fill="none" stroke="black" points="320.5,-348 320.5,-369 609.5,-369 609.5,-348 320.5,-348"/>
<text text-anchor="start" x="323.5" y="-354.8" font-family="Times,serif" font-size="14.00"> Valid_SampledTaps_pipe&lt;= &#160;&#160;Valid_SampledTaps </text>
</g>
<!-- node6&#45;&gt;node7 -->
<g id="edge9" class="edge">
<title>node6:s&#45;&gt;node7</title>
<path fill="none" stroke="red" d="M474.5,-428C474.5,-414.53 472.55,-399.71 470.38,-387.35"/>
<polygon fill="red" stroke="red" points="473.76,-386.4 468.45,-377.23 466.88,-387.7 473.76,-386.4"/>
<text text-anchor="middle" x="482" y="-398.8" font-family="Times,serif" font-size="14.00">yes</text>
</g>
<!-- node6&#45;&gt;node10 -->
<g id="edge10" class="edge">
<title>node6:s&#45;&gt;node10:n</title>
<path fill="none" stroke="black" d="M474.5,-428C474.5,-410.29 612.14,-388.63 625.5,-377 645.74,-359.38 636.27,-344.37 652.5,-323"/>
<text text-anchor="middle" x="649.5" y="-355.3" font-family="Times,serif" font-size="14.00">no</text>
</g>
<!-- node7&#45;&gt;node10 -->
<g id="edge11" class="edge">
<title>node7&#45;&gt;node10:n</title>
<path fill="none" stroke="green" d="M616.19,-341.7C633.17,-336.97 646.53,-330.87 652.5,-323"/>
</g>
<!-- node11 -->
<g id="node10" class="node">
<title>node11</title>
<polygon fill="lightcyan" stroke="transparent" points="470.5,-134 470.5,-155 792.5,-155 792.5,-134 470.5,-134"/>
<polygon fill="none" stroke="black" points="470.5,-134 470.5,-155 792.5,-155 792.5,-134 470.5,-134"/>
<text text-anchor="start" x="473.5" y="-140.8" font-family="Times,serif" font-size="14.00"> Valid_SampledTaps_TDL&lt;= &#160;&#160;Valid_SampledTaps_pipe </text>
</g>
<!-- node10&#45;&gt;node11 -->
<g id="edge12" class="edge">
<title>node10:s&#45;&gt;node11</title>
<path fill="none" stroke="red" d="M652.5,-268C652.5,-258.13 642.89,-259.27 639.5,-250 630.39,-225.13 629.08,-194.72 629.63,-173.23"/>
<polygon fill="red" stroke="red" points="633.13,-173.3 630.04,-163.17 626.13,-173.02 633.13,-173.3"/>
<text text-anchor="middle" x="649" y="-238.8" font-family="Times,serif" font-size="14.00">yes</text>
</g>
<!-- node12 -->
<g id="node11" class="node">
<title>node12</title>
<polygon fill="#c1b2ff" stroke="#c1b2ff" points="909.5,-217 659.48,-199 909.5,-181 1159.52,-199 909.5,-217"/>
<text text-anchor="middle" x="909.5" y="-195.3" font-family="Times,serif" font-size="14.00"> elsif &#160;&#160;&#160;BUFFERING_STAGE= &#160;&#160;FALSE then</text>
</g>
<!-- node10&#45;&gt;node12 -->
<g id="edge13" class="edge">
<title>node10:s&#45;&gt;node12</title>
<path fill="none" stroke="black" d="M652.5,-268C652.5,-237.11 722.79,-219.93 789.84,-210.57"/>
<polygon fill="black" stroke="black" points="790.69,-213.99 800.14,-209.19 789.76,-207.05 790.69,-213.99"/>
<text text-anchor="middle" x="690.5" y="-238.8" font-family="Times,serif" font-size="14.00">no</text>
</g>
<!-- node16 -->
<g id="node13" class="node">
<title>node16</title>
<path fill="none" stroke="black" d="M846.5,-36C846.5,-36 778.5,-36 778.5,-36 772.5,-36 766.5,-30 766.5,-24 766.5,-24 766.5,-12 766.5,-12 766.5,-6 772.5,0 778.5,0 778.5,0 846.5,0 846.5,0 852.5,0 858.5,-6 858.5,-12 858.5,-12 858.5,-24 858.5,-24 858.5,-30 852.5,-36 846.5,-36"/>
<polygon fill="white" stroke="transparent" points="774.5,-10 774.5,-25 850.5,-25 850.5,-10 774.5,-10"/>
<text text-anchor="start" x="774.5" y="-13.8" font-family="Times,serif" font-size="14.00"> end process &#160;</text>
</g>
<!-- node11&#45;&gt;node16 -->
<g id="edge14" class="edge">
<title>node11&#45;&gt;node16</title>
<path fill="none" stroke="green" d="M630.99,-126.84C631.51,-110.41 635.11,-86.22 650.5,-73 677.97,-49.39 813.82,-91.2 812.5,-55"/>
<path fill="none" stroke="green" d="M812.5,-54C812.29,-51.46 812.15,-48.81 812.06,-46.15"/>
<polygon fill="green" stroke="green" points="815.56,-46.07 811.94,-36.11 808.56,-46.15 815.56,-46.07"/>
</g>
<!-- node13 -->
<g id="node12" class="node">
<title>node13</title>
<polygon fill="lightcyan" stroke="transparent" points="666.5,-80 666.5,-101 958.5,-101 958.5,-80 666.5,-80"/>
<polygon fill="none" stroke="black" points="666.5,-80 666.5,-101 958.5,-101 958.5,-80 666.5,-80"/>
<text text-anchor="start" x="669.5" y="-86.8" font-family="Times,serif" font-size="14.00"> Valid_SampledTaps_TDL&lt;= &#160;&#160;Valid_SampledTaps </text>
</g>
<!-- node12&#45;&gt;node13 -->
<g id="edge15" class="edge">
<title>node12&#45;&gt;node13</title>
<path fill="none" stroke="red" d="M894.77,-181.9C878.95,-164.62 853.63,-136.95 835.25,-116.86"/>
<polygon fill="red" stroke="red" points="837.67,-114.32 828.34,-109.31 832.51,-119.05 837.67,-114.32"/>
<text text-anchor="middle" x="884" y="-141.3" font-family="Times,serif" font-size="14.00">yes</text>
</g>
<!-- node12&#45;&gt;node16 -->
<g id="edge16" class="edge">
<title>node12&#45;&gt;node16</title>
<path fill="none" stroke="black" d="M928.69,-182.27C957.29,-156.98 1004.68,-106.72 974.5,-73 950.34,-46.01 815.45,-91.1 812.5,-55"/>
<text text-anchor="middle" x="990.5" y="-87.3" font-family="Times,serif" font-size="14.00">no</text>
</g>
<!-- node13&#45;&gt;node16 -->
<g id="edge17" class="edge">
<title>node13&#45;&gt;node16</title>
<path fill="none" stroke="green" d="M812.75,-72.91C812.77,-67.21 812.71,-60.83 812.5,-55"/>
</g>
</g>
</svg>
